<svg width="52" height="53" viewBox="0 0 52 53" fill="none" xmlns="http://www.w3.org/2000/svg">
<path d="M23.128 43.9461C18.9011 43.9461 14.9547 42.4195 12.2856 39.7192C9.8866 37.3202 8.62996 34.0903 8.59881 30.3724L7.40448 30.5801L7.34217 30.3724C7.31101 30.227 6.46979 26.5713 10.489 23.331C9.40887 20.8178 8.3911 16.2066 12.5868 12.6341C13.0334 12.1875 13.3346 12.0006 13.5423 11.824C13.6669 11.7305 13.75 11.6786 13.8434 11.6163C14.0823 10.962 14.56 10.3597 14.7989 10.1208C16.1178 8.73953 17.7899 8.53182 17.8522 8.50067C18.0911 8.46951 18.3299 8.43835 18.5688 8.43835C19.8566 8.43835 20.6044 8.9784 20.9367 9.21726C20.9678 9.24842 20.9678 9.24842 20.999 9.24842C21.1444 9.27957 21.3313 9.31073 21.5702 9.31073C21.8091 9.31073 22.1414 9.34189 22.5568 9.37304C24.9247 9.67422 26.9291 10.7855 28.5492 12.6029C29.0892 12.5406 31.2494 12.2394 32.3191 12.0006C32.8591 11.8759 33.4303 11.7617 33.9704 11.6371C36.6083 11.0659 39.0904 10.5258 40.8871 10.5258C41.1571 10.5258 41.396 10.5258 41.6037 10.557H41.6348C42.9226 10.7958 43.9092 11.4813 44.335 12.4991C45.2386 14.6592 44.6674 16.3313 42.393 18.1591C39.672 20.3504 35.7775 21.4824 33.555 21.9913C33.5861 22.1679 33.6484 22.5002 33.7938 23.0403C34.3339 22.9779 34.9051 22.9779 35.4451 22.9779C39.8797 22.9779 42.7253 24.5981 42.9018 26.187C42.933 26.7271 42.5384 27.3502 41.6141 27.6202C37.6261 28.6692 36.8264 30.6112 35.7775 35.1704C35.1439 37.8706 33.5654 40.1139 31.104 41.6717C28.9023 43.1672 26.0567 43.9461 23.128 43.9461Z" fill="#DF4601"/>
<path d="M18.5689 8.69804C19.8878 8.69804 20.6356 9.33155 20.9056 9.5081C21.2691 9.63273 21.6533 9.53926 22.5257 9.6535C24.0212 9.86121 26.3891 10.4947 28.4558 12.9145C28.4558 12.9145 31.1248 12.551 32.3815 12.3122C35.5594 11.6579 38.7581 10.879 40.8871 10.879C41.126 10.879 41.3649 10.879 41.5726 10.9101C42.9227 11.149 43.7639 11.8967 44.0858 12.738C45.0101 14.9501 44.2624 16.4871 42.2268 18.128C39.6824 20.1635 35.9644 21.3579 33.3058 21.9914C33.3058 21.9914 33.3369 22.4068 33.6381 23.4557C34.2716 23.3934 34.8636 23.3623 35.4348 23.3623C39.7447 23.3623 42.5073 24.9201 42.6527 26.3533C42.6838 26.7687 42.3515 27.3087 41.5103 27.5476C37.408 28.6277 36.5356 30.6944 35.4867 35.2743C34.1989 40.9032 28.7466 43.78 23.0865 43.78C16.0452 43.78 8.74426 39.3454 8.76503 30.1855L7.50839 30.3932C7.50839 30.3932 6.60486 26.6752 10.7175 23.4765C9.98012 21.8148 8.12113 16.7883 12.6699 12.9249C13.3865 12.2395 13.6566 12.146 13.9889 11.876C14.1966 11.2425 14.6432 10.6505 14.9132 10.4116C16.201 9.0823 17.8211 8.87459 17.8211 8.87459C18.1223 8.72919 18.3612 8.69804 18.5689 8.69804ZM18.5689 8.25146C18.33 8.25146 18.06 8.28262 17.8211 8.31378C17.6757 8.34493 15.9933 8.5838 14.6432 9.99622C14.4043 10.2351 13.9266 10.8374 13.6566 11.5229C13.5942 11.5852 13.5112 11.6475 13.4177 11.6994C13.1788 11.8448 12.9088 12.0629 12.4311 12.5095C10.3644 14.2439 9.31545 16.404 9.31545 18.9484C9.31545 20.3297 9.61663 21.7941 10.219 23.2896C8.18344 24.9616 7.42531 26.7271 7.16567 27.9838C6.86449 29.3962 7.10336 30.414 7.10336 30.4347L7.19683 30.8501L7.61225 30.7878L8.36 30.6632C8.45346 34.3189 9.74126 37.4968 12.1299 39.8855C14.8613 42.6272 18.87 44.185 23.1281 44.185C26.0983 44.185 28.9647 43.4061 31.2183 41.9729C33.7004 40.384 35.3517 38.0784 35.9852 35.3263C37.0341 30.7774 37.7819 28.9496 41.6453 27.963C42.7253 27.6618 43.1719 26.9141 43.1096 26.2806C43.0161 25.377 42.1542 24.515 40.7729 23.8815C39.7863 23.4349 38.0208 22.8949 35.414 22.8949C34.9363 22.8949 34.4586 22.9261 33.9497 22.9572C33.8874 22.6872 33.825 22.5106 33.8043 22.3237C36.0787 21.7837 39.8278 20.6205 42.4865 18.4915C44.8544 16.6013 45.4567 14.8358 44.4909 12.5614C44.0443 11.4813 42.9954 10.7024 41.6141 10.4636H41.5414C41.3025 10.4324 41.0637 10.4324 40.7937 10.4324C38.9658 10.4324 36.4837 10.9724 33.8458 11.5436C33.3058 11.6683 32.7346 11.7825 32.1945 11.9071C31.1768 12.1148 29.2243 12.3849 28.57 12.4783C27.0122 10.5882 24.9767 9.5081 22.5776 9.18615C22.1622 9.12384 21.8299 9.12384 21.5599 9.12384C21.3522 9.12384 21.1964 9.12384 21.0821 9.09268C21.0821 9.09268 21.051 9.09268 21.051 9.06153C20.729 8.81228 19.919 8.25146 18.5689 8.25146Z" fill="white"/>
<path d="M37.3457 26.3117C32.9111 28.7626 33.2123 31.9406 28.2377 33.2595C22.6088 34.7239 18.0496 30.9539 21.3522 30.2062C22.1311 30.0608 22.2245 29.5727 21.3833 29.7285C19.4101 29.8531 16.8657 30.8709 19.2543 34.8173C19.2543 34.8173 19.5866 34.9627 19.732 34.8173C19.732 34.8173 18.8285 32.8129 19.5243 32.2417C22.7023 35.2639 29.7643 35.8039 34.1989 29.905C35.6944 27.9318 37.4288 26.7894 39.1112 26.104C36.411 25.4497 33.3577 25.3874 31.6856 25.8962C31.4779 23.2272 31.3222 22.4794 30.8133 21.3474C30.5744 20.8385 30.5433 20.5374 31.7168 20.205C32.4334 19.9973 35.4348 19.3015 38.0104 18.1383C39.8382 17.2971 41.0948 16.3728 41.4272 16.0405C41.6972 15.8016 42.6526 14.7215 42.2995 13.8492C41.9361 12.9768 41.0741 12.9249 40.0251 13.0079C39.1216 13.1014 38.7062 13.1326 33.1084 14.358C30.1694 14.9604 28.4973 14.9916 27.4484 15.3135C27.4484 15.3135 26.0671 11.959 21.4872 11.8136C20.8848 11.8136 19.9294 11.689 19.4516 11.2113C18.9427 10.827 18.0392 10.8789 17.2915 11.3047C16.7203 11.6059 16.2425 12.0836 16.1491 12.5302C15.9414 13.3091 15.6713 13.2468 14.5912 14.1503C13.2411 15.2616 10.1567 17.7125 13.5735 23.9749C10.4578 25.7716 10.0113 27.8695 10.0113 27.8695L11.4445 27.776C11.2368 28.1603 11.0602 29.4584 11.0602 30.0193C11.029 33.2803 12.0157 35.9805 14.0304 38.016C16.2218 40.2281 19.5451 41.5159 23.0761 41.5159C25.5582 41.5159 27.9573 40.8616 29.8163 39.6881C30.6575 39.148 31.4052 38.4938 31.9764 37.746C24.852 42.1806 18.3196 38.4003 17.0007 34.6304C15.7129 30.9436 18.0184 28.098 20.9575 28.7938C25.0597 29.7804 27.2199 29.2092 27.843 27.236C28.3519 27.4125 29.5255 27.3814 30.2421 27.0283C31.3014 26.5505 33.7835 25.647 37.3457 26.3117Z" fill="black"/>
<path d="M28.0819 20.7867C27.9573 20.7763 27.8327 20.7867 27.7081 20.8282C26.7214 21.0983 26.2749 22.6249 26.6591 24.2451C27.1057 25.8652 28.2481 26.966 29.2347 26.696C30.2213 26.426 30.6679 24.8993 30.2525 23.2792C29.889 21.8668 28.9647 20.8386 28.0819 20.7867ZM17.8835 21.7214C15.4533 22.8638 13.1165 23.1338 13.1165 23.1338L13.532 24.0062L17.8835 21.7214ZM23.8966 22.4484C23.772 22.4484 23.637 22.4691 23.5227 22.5107C22.5673 22.8119 22.2038 24.3697 22.7127 25.9587C23.2216 27.5476 24.447 28.5966 25.4129 28.2642C26.3683 27.963 26.7318 26.4052 26.2229 24.8163C25.766 23.4246 24.7898 22.4484 23.8966 22.4484Z" fill="white"/>
<path d="M27.1056 23.1753C27.0433 23.1857 26.981 23.1961 26.9291 23.2273C26.4514 23.4661 26.3579 24.2139 26.6902 24.8993C27.0226 25.6159 27.6768 25.9794 28.1234 25.7717C28.6011 25.5328 28.6946 24.7851 28.3623 24.0996C28.0819 23.4869 27.5418 23.113 27.1056 23.1753ZM23.2838 24.5981C23.1384 24.5877 23.0034 24.6189 22.8892 24.6916C22.4114 24.9616 22.318 25.8028 22.7438 26.5194C23.1592 27.236 23.8862 27.6307 24.3639 27.3606C24.8416 27.0906 24.9351 26.2494 24.5093 25.5328C24.1873 24.972 23.7096 24.6293 23.2838 24.5981Z" fill="black"/>
<path d="M18.1016 11.9071C17.6654 11.9279 17.198 12.1979 16.9488 13.1326L19.192 12.2914C19.2024 12.2914 18.6728 11.8864 18.1016 11.9071ZM22.5569 12.8938C22.2557 12.9249 21.9857 13.0392 21.8403 13.2884C21.6638 13.5273 21.6015 13.8908 21.7157 14.1919C21.4457 14.8462 21.4768 15.6251 21.6534 16.2275C21.8611 16.861 22.1623 17.3076 22.5777 17.5153C22.8166 17.6607 23.1177 17.6607 23.3254 17.6087C23.6266 17.5153 23.8343 17.3076 23.9797 16.9752C24.3121 16.2898 24.2497 15.272 24.0109 14.5762C24.1355 14.4827 24.2809 14.275 24.3432 14.0985L24.1355 14.0362C24.0732 14.1608 24.0109 14.275 23.9278 14.3685C23.5747 13.3715 23.0658 12.8626 22.5569 12.8938ZM22.5881 13.3403C22.9516 13.3403 23.2735 14.0258 23.4604 14.6281C23.1904 14.7527 22.9827 14.7527 22.775 14.6593C22.5361 14.5658 22.3284 14.3581 22.2038 14.1192C22.1103 13.9115 22.1103 13.6727 22.235 13.4857C22.2869 13.4026 22.4323 13.3403 22.5881 13.3403ZM41.126 14.2231C40.6275 14.1816 35.3518 17.858 35.3518 17.858C38.8516 16.6948 41.6661 14.9189 41.1572 14.2335L41.126 14.2231ZM38.8516 14.3269C38.8516 14.3269 33.1293 15.5836 29.5359 16.0302C25.6725 16.4767 22.2246 19.1458 22.2246 19.1458C20.7602 20.1012 22.2557 20.1012 24.5301 20.4024C28.03 20.4959 30.2525 19.7481 33.2747 17.9515C36.0683 16.0094 38.8516 14.3269 38.8516 14.3269ZM24.7171 14.3581C24.6859 14.3581 24.6548 14.4204 24.6236 14.4827C24.5613 14.6074 24.5301 14.7839 24.5925 14.867C24.5925 14.8981 24.6548 14.8981 24.7379 14.867C24.769 14.867 24.8002 14.8358 24.8002 14.8047C24.8625 14.7424 24.8625 14.6281 24.8313 14.5658C24.8002 14.5347 24.769 14.5347 24.7067 14.5347C24.7067 14.4723 24.7067 14.4412 24.7379 14.3581H24.7171ZM25.2467 14.6593L25.0079 14.8358C24.9767 14.9293 24.9456 15.1059 24.9456 15.2512L24.9144 15.729C24.8833 16.0302 24.8209 16.269 24.6755 16.3625L24.6132 16.6325H24.6444C24.8209 16.539 24.9456 16.3625 25.039 16.0613L25.0702 15.7913L25.1013 15.5524V15.4901L25.1325 15.2512C25.1325 15.1889 25.1637 15.1266 25.1637 15.0747V15.0435L25.1948 15.0747C25.2571 15.1682 25.4337 15.3136 25.5271 15.3759L25.5583 15.407H25.5271C25.226 15.5317 25.1637 15.7394 25.226 15.8224C25.2571 15.8848 25.3194 15.9471 25.3506 15.9678C25.4129 15.999 25.496 15.999 25.5895 15.9367C25.766 15.8432 25.8906 15.6355 25.8283 15.4278V15.3966L25.7972 15.3032C25.766 15.2097 25.7349 15.1578 25.6518 15.0643L25.4441 14.8878L25.3818 14.8254C25.3194 14.7943 25.2883 14.732 25.2883 14.6801V14.6489L25.2467 14.6593ZM22.1311 14.8358C22.5777 15.1059 23.0035 15.1059 23.5124 14.8358C23.6058 15.1682 23.6889 15.6147 23.6889 15.9782C23.6889 16.2794 23.6578 16.6637 23.5124 16.9025C23.4189 17.0479 23.3358 17.1102 23.18 17.1414C22.7023 17.2349 22.2765 16.5079 22.1311 15.9782C22.048 15.6147 22.048 15.1993 22.1311 14.8358ZM25.5791 15.4382H25.6102C25.6102 15.4382 25.6102 15.4693 25.6414 15.4693C25.6414 15.5628 25.6414 15.6459 25.6102 15.6771C25.5791 15.7394 25.5479 15.7705 25.4856 15.7913C25.4233 15.8224 25.361 15.7913 25.3402 15.7601C25.2779 15.729 25.2779 15.6667 25.3091 15.6147C25.3402 15.5524 25.4337 15.5005 25.5791 15.4382Z" fill="#DF4601"/>
</svg>
