<svg width="42" height="42" viewBox="0 0 42 42" fill="none" xmlns="http://www.w3.org/2000/svg">
<g clip-path="url(#clip0_1_284)">
<path d="M10.4763 4.28481C9.41056 5.4029 8.3792 7.61648 8.23023 9.12985C8.18439 9.61548 8.16147 10.0559 8.16147 10.4738C8.16147 11.9872 8.47088 13.1391 9.15845 14.2572C10.0179 15.669 11.3701 16.8209 13.0776 17.6002C14.6934 18.3343 17.0082 19.362 17.2832 19.475C17.3749 19.5089 17.501 19.5653 17.627 19.6331C17.0999 20.0171 16.779 20.2317 16.5269 20.4237C15.0945 20.0961 13.2839 20.3446 12.8599 20.4462C11.1524 20.8415 9.58245 21.5982 8.44796 22.5808C7.29055 23.5746 6.41963 24.7266 6.13314 25.6414C5.80081 26.6691 5.91541 27.3919 6.44255 27.8098C7.23325 28.4197 8.25315 27.7985 8.58547 27.5952C9.27304 27.1661 10.5336 26.3868 12.1265 26.1496C13.5131 25.9463 15.3695 26.127 16.229 26.6804C16.229 27.1773 16.229 27.7646 16.229 28.1712C16.0227 28.3519 15.805 28.5552 15.805 28.5552C15.5872 28.7698 15.4726 29.0521 15.4726 29.357C15.4726 29.4926 15.4955 29.6394 15.5528 29.7749C15.7018 30.1589 16.0227 30.317 16.0227 30.317C18.773 31.9659 18.773 31.9659 20.6294 33.084C20.6065 33.0953 20.5492 33.0953 20.5263 33.1066C20.2856 33.2082 19.7126 33.5583 19.7126 34.5409V38.5163L22.1077 40.7751C22.6348 41.2946 23.1505 41.3849 23.4943 41.3624C23.9183 41.3398 24.2964 41.1365 24.56 40.7977C24.56 40.7977 26.1529 38.7761 27.1499 37.5338C27.8833 38.6518 29.0407 40.4137 29.0407 40.4137C29.0292 40.3911 29.0636 40.4701 29.0636 40.4701C29.2011 40.7525 29.4761 41.3398 30.1293 41.5092C30.4158 41.5882 30.8742 41.5882 31.4128 41.2155C32.1347 40.7073 33.7964 39.4198 34.0828 39.1375L34.1401 39.081C34.335 38.889 34.6329 38.5954 34.6329 38.121V34.315C34.6329 33.9085 34.4152 33.3889 33.8995 33.1856C33.5328 33.0388 33.0973 33.0388 32.5931 33.4454C32.3639 33.6261 31.9858 33.9085 31.4128 34.3263C31.0805 33.8068 30.9086 33.5358 30.6679 33.1518C31.1492 32.5532 32.3066 31.1189 32.9484 30.317C33.0286 30.3848 33.2005 30.509 33.2005 30.509L33.2234 30.5316C33.8995 30.9721 34.4152 30.8139 34.6673 30.6784C35.3434 30.3057 35.3548 29.47 35.3434 29.2215V26.0367L33.3036 23.9586C33.0056 23.6311 32.5931 23.4617 32.1691 23.4956C31.7336 23.5294 31.3326 23.7666 31.1034 24.1393C30.9888 24.2974 30.0262 25.4946 29.0177 26.7256C29.0177 25.8108 29.0177 23.089 29.0177 22.5582C29.1438 22.4339 29.2699 22.3097 29.2699 22.3097C29.4532 22.1516 29.8657 21.6547 29.8657 21.0561C29.8657 20.9206 29.8428 20.7738 29.7855 20.6269C29.6709 20.322 29.3845 19.9719 28.7656 19.8251C28.949 19.1249 29.0177 18.4472 29.0292 17.9277C29.0292 17.8825 29.0292 17.8261 29.0292 17.7809C29.0292 16.3918 28.6969 15.2172 28.0666 14.2911C27.2988 13.1956 26.7144 12.8229 25.8893 12.3147L25.683 12.1792C24.7319 11.5806 19.7241 8.99433 19.5178 8.88139C19.4949 8.87009 17.6041 7.944 17.6041 7.944C16.355 7.32284 16.2633 6.88238 16.2633 6.64522C16.2633 6.63392 16.2633 6.61133 16.2633 6.60004C16.2863 6.45322 16.63 5.9337 17.352 5.9337C18.0854 5.9337 18.6011 5.95629 19.5637 6.27252C21.0992 6.78074 21.1336 7.39061 21.1336 7.61648C21.1336 7.67295 21.0878 8.3054 21.0878 8.3054L24.2735 10.4512L29.0407 4.40904L25.1674 1.85664L24.6517 2.36486C24.4798 2.53427 24.3767 2.63592 24.3079 2.68109C24.2277 2.6698 24.0329 2.63592 24.0329 2.63592L23.1734 2.31969C21.8556 1.77759 19.6095 0.885376 17.5583 0.885376C13.9714 0.885376 12.0921 2.56815 10.4763 4.28481Z" fill="white"/>
<path d="M10.9462 4.73655C9.98355 5.75299 9.02096 7.83105 8.88344 9.1863C8.8376 9.63806 8.81469 10.0672 8.81469 10.4512C8.81469 11.8403 9.10117 12.8907 9.70853 13.8958C10.4992 15.1833 11.7483 16.2562 13.3297 16.979C15.0143 17.747 17.2718 18.7409 17.5124 18.8425C17.9708 19.0232 18.6699 19.4072 18.8532 19.5992C18.6126 19.7686 16.7676 21.09 16.653 21.1803C15.4383 20.7963 13.5245 21.0109 12.9859 21.1351C11.3816 21.5078 9.92626 22.2081 8.87198 23.1229C7.81771 24.0264 7.01555 25.088 6.75198 25.8785C6.52279 26.6013 6.54571 27.0757 6.83219 27.2903C7.10722 27.4936 7.54268 27.4145 8.17295 27.0305C8.84906 26.6126 10.2471 25.743 11.989 25.4833C13.2839 25.2913 14.5788 25.4381 15.5529 25.6753C15.5529 25.6753 16.3092 25.9011 16.8936 26.2964C16.8936 26.4771 16.8936 28.3519 16.8936 28.4987C16.7905 28.5891 16.2634 29.0634 16.2634 29.0634C16.1717 29.1537 16.1373 29.2667 16.1373 29.3796C16.1373 29.4474 16.1488 29.5039 16.1717 29.5603C16.2175 29.6846 16.3436 29.7523 16.3436 29.7523L22.9099 33.6939C22.9099 33.6939 24.4684 32.5193 24.7434 32.316C24.8465 32.4967 24.984 32.7113 25.0642 32.8355C24.9267 33.0049 23.2422 35.0378 23.0359 35.2863C22.7953 35.083 21.5691 33.9988 21.5691 33.9988C21.2024 33.6713 20.9159 33.7164 20.7784 33.7729C20.5263 33.8746 20.3888 34.1682 20.3888 34.5748V38.2678L22.589 40.3346C22.9328 40.6734 23.2422 40.7299 23.437 40.7186C23.6547 40.7073 23.8495 40.5944 23.9985 40.4137C23.9985 40.4137 26.5311 37.2062 27.1957 36.3705C27.4478 36.7545 29.6251 40.0749 29.6251 40.0749L29.6939 40.2217C29.8085 40.4475 29.9689 40.7977 30.3012 40.888C30.5075 40.9445 30.7482 40.8767 31.0003 40.696C31.7108 40.1878 33.3609 38.9116 33.5901 38.6857L33.6474 38.6292C33.8078 38.4711 33.9339 38.3469 33.9339 38.1549V34.3489C33.9339 34.1682 33.8308 33.9423 33.636 33.8633C33.4984 33.8068 33.2807 33.7955 33.0171 34.0553C33.0286 34.044 31.6993 35.0378 31.2409 35.3766C31.069 35.1056 29.9345 33.3212 29.8199 33.1405C29.9689 32.9598 32.6504 29.6281 32.8567 29.3796C33.063 29.5377 33.636 29.9782 33.636 29.9782C33.9224 30.1702 34.1631 30.2041 34.3579 30.1024C34.7017 29.9104 34.6788 29.3457 34.6788 29.278V26.3303L32.8109 24.4329C32.6619 24.2635 32.4671 24.1845 32.2608 24.1958C32.0545 24.2184 31.8483 24.3426 31.7337 24.5233C31.6305 24.6814 30.1981 26.4545 29.1782 27.6968C28.9146 27.4936 28.5365 27.3354 28.3417 27.279C28.3417 27.0305 28.3417 22.4339 28.3417 22.2984C28.4104 22.2306 28.8344 21.8015 28.8344 21.8015C28.9032 21.745 29.1897 21.4175 29.1897 21.0787C29.1897 21.0109 29.1782 20.9432 29.1553 20.8867C29.0522 20.6043 28.7084 20.4575 28.1698 20.4575C28.1583 20.4575 27.9864 20.4688 27.826 20.4914C28.2271 19.5879 28.3417 18.6166 28.3531 17.9277C28.3531 17.8825 28.3531 17.8374 28.3531 17.7922C28.3531 16.5386 28.0666 15.4995 27.5051 14.6864C26.8176 13.7038 26.3363 13.3989 25.5341 12.8907L25.3164 12.7551C24.3881 12.1679 19.4033 9.59288 19.1855 9.47994L17.2833 8.55385C15.7821 7.80846 15.5414 7.15342 15.5414 6.61132C15.5414 6.58873 15.5414 6.56614 15.5414 6.54355C15.5529 6.0918 16.2061 5.23347 17.3291 5.23347C18.1083 5.23347 18.7042 5.25606 19.77 5.60617C21.1566 6.06922 21.8327 6.72426 21.8327 7.63905L21.8098 7.96657L24.1246 9.52512L28.0323 4.57843L25.2591 2.74884L25.1559 2.85048C24.56 3.43776 24.5371 3.43776 23.8954 3.31353C23.7235 3.27965 23.3682 3.13283 22.9099 2.95213C21.6264 2.42132 19.4491 1.56299 17.5354 1.56299C14.2236 1.56299 12.5276 3.06506 10.9462 4.73655ZM16.8134 21.5191L19.3001 19.746V19.6557C19.2657 19.2378 18.0854 18.6957 17.6614 18.5263C17.4208 18.4246 15.1403 17.4195 13.4902 16.6628C11.9775 15.9739 10.7743 14.9574 10.0294 13.7264C9.47934 12.8229 9.0095 11.6596 9.25015 9.23148C9.3762 7.96657 10.3159 5.94498 11.2212 4.9963C12.7453 3.38129 14.3725 1.93568 17.5354 1.93568C19.3803 1.93568 21.5118 2.78272 22.7953 3.29094C23.288 3.48293 23.6433 3.62975 23.8381 3.66364C24.5371 3.79916 24.7205 3.77657 25.3164 3.21188C25.5226 3.34741 27.2416 4.48808 27.5166 4.65749C27.2988 4.93984 24.2506 8.79102 24.0558 9.02819C23.8152 8.87008 22.3483 7.87622 22.1994 7.77458C22.1994 7.70682 22.2108 7.63905 22.2108 7.63905C22.2108 6.55485 21.4316 5.76428 19.9075 5.25606C18.7959 4.88337 18.1427 4.86078 17.352 4.86078C15.9769 4.86078 15.2205 5.94498 15.1976 6.52097C15.1632 7.45835 15.7591 8.18116 17.1343 8.87008L19.0366 9.79617C19.0824 9.81876 24.2162 12.4728 25.133 13.0488L25.3507 13.1843C26.1414 13.6812 26.5769 13.9523 27.2186 14.8784C27.7572 15.6577 28.0208 16.6741 27.9979 17.9051C27.9864 18.6279 27.8718 19.6782 27.3905 20.593L27.2301 20.8867L28.1927 20.7963C28.5365 20.7963 28.7771 20.8641 28.823 20.9883C28.8803 21.1464 28.6854 21.4401 28.6052 21.5078L27.975 22.1403L27.9864 22.1968V27.5161L28.1125 27.55C28.4104 27.6291 28.9146 27.8437 29.0636 28.0357L29.2011 28.2277L29.3501 28.047C29.6137 27.7307 31.8941 24.9299 32.0431 24.704C32.1004 24.6136 32.2035 24.5572 32.2952 24.5459C32.3869 24.5346 32.4671 24.5798 32.5358 24.6588C32.5358 24.6588 34.0485 26.2061 34.3006 26.4658C34.3006 26.6013 34.3006 29.278 34.3006 29.278C34.3006 29.2893 34.3006 29.3006 34.3006 29.3232C34.3006 29.5039 34.2548 29.7297 34.1631 29.7749C34.1058 29.8088 33.9797 29.7636 33.8422 29.6733L32.7879 28.8601L29.373 33.1066L31.1492 35.8961L33.2578 34.3263C33.3838 34.2021 33.4641 34.1795 33.4984 34.1908C33.5443 34.2134 33.5787 34.2924 33.5787 34.3489V38.1549C33.5787 38.2001 33.4984 38.2791 33.3953 38.3695L33.338 38.426C33.1317 38.6292 31.5389 39.8603 30.794 40.4024C30.6336 40.5153 30.5075 40.5605 30.4044 40.5379C30.2439 40.4927 30.1179 40.2556 30.0377 40.0749L29.9345 39.8829L27.2301 35.7493L23.712 40.1991C23.6547 40.2668 23.5631 40.3572 23.4141 40.3572C23.2422 40.3685 23.0474 40.2668 22.8526 40.0749C22.8526 40.0749 20.8701 38.2114 20.7669 38.1097C20.7669 37.9629 20.7669 34.5748 20.7669 34.5748C20.7669 34.2811 20.8586 34.1456 20.9388 34.1117C21.0305 34.0778 21.1795 34.1343 21.3399 34.2698L23.0932 35.8171L25.5341 32.8807L24.8694 31.7965C24.8694 31.7965 23.0932 33.1405 22.9099 33.276C22.7036 33.1518 16.5384 29.4474 16.5269 29.4474C16.5155 29.4361 16.5155 29.4135 16.5155 29.3909C16.5155 29.3683 16.5269 29.3457 16.5269 29.3344L17.2603 28.6681V28.5891V26.1044L17.1801 26.0479C16.6874 25.7317 16.2863 25.5058 15.5643 25.3251C14.3496 25.0202 12.9286 24.975 11.9317 25.1219C10.1096 25.4042 8.66571 26.2851 7.96668 26.7143C7.30203 27.1209 7.0843 27.0305 7.03846 26.9966C6.93533 26.9176 6.88949 26.6013 7.0843 25.9802C7.31349 25.2574 8.1042 24.2409 9.08971 23.3826C10.0981 22.513 11.5077 21.8354 13.0547 21.474C13.6621 21.3271 15.5529 21.1464 16.6186 21.5304L16.7103 21.5643L16.8134 21.5191Z" fill="#C4CDD3"/>
<path d="M34.037 40.3572H33.7619V41.1026H33.5786V40.3572H33.3036V40.1991H34.037V40.3572ZM35.286 41.1026H35.1027V40.3911L34.8391 41.1026H34.6443L34.3922 40.3911V41.1026H34.2089V40.1991H34.5297L34.7475 40.7864L34.9652 40.1991H35.286V41.1026Z" fill="#231F20"/>
<path d="M34.0141 29.3345V26.6353L32.2952 25.1219L27.5509 30.9269L26.8863 29.8766C27.4593 29.4475 28.2156 28.9054 28.2958 28.8602C28.4333 28.7924 28.7771 28.5891 28.949 28.5891C29.1094 28.5891 28.7083 27.9115 27.5738 27.9115V21.9371L28.227 21.2256C28.227 21.2256 27.4363 21.3498 27.0582 21.2369C26.978 21.2143 26.8519 21.1465 26.68 21.0675C26.8977 20.7286 27.0811 20.3559 27.2301 19.9155C28.0093 17.4986 27.4936 15.2624 25.6487 13.8846C24.3537 12.9133 19.0365 10.2706 19.0365 10.2706C19.0365 10.2706 15.8164 8.71203 15.4726 8.37322C15.2205 8.12476 14.7163 7.75206 14.7163 6.55492C14.7163 5.84341 15.5185 5.05284 15.8737 4.89473C16.4352 4.63497 16.6186 4.51074 17.7416 4.49944C18.3833 4.48815 18.9678 4.64626 19.048 4.64626C19.747 4.71403 21.4086 5.25613 22.2681 6.3968C22.6004 6.72432 22.6577 7.673 22.6577 7.673L23.9985 8.52004L26.9092 4.7705L25.3392 3.70888C24.8923 4.18322 24.0329 4.2171 23.7005 4.04769C23.3568 3.87829 20.4117 2.82796 19.9991 2.69244C19.2084 2.44397 17.501 2.26327 16.5727 2.3988C15.6445 2.53432 14.1319 2.80537 12.9401 4.04769C11.5535 5.4933 11.5306 6.66785 11.5306 7.28901C11.5306 8.27157 11.7827 9.55907 12.9057 10.6546C14.51 12.2357 16.9509 13.2296 17.501 13.5232C18.475 14.054 21.5462 15.6351 21.9931 15.8949C23.8839 16.9791 24.5944 18.1198 24.3881 19.5767C24.3766 19.6444 24.3537 19.7122 24.3423 19.78C23.5172 19.3056 22.3598 18.5828 21.8899 18.1198C21.8899 18.1198 21.6035 18.4134 21.4316 18.5941L20.0679 19.5993C20.2283 18.9442 20.2512 17.8261 20.2169 17.7132C20.1825 17.5777 20.0793 16.4935 19.1167 15.8271C18.4636 15.3641 17.0082 14.5058 15.7591 13.9072C15.2205 13.6474 13.4787 12.6084 12.6421 11.9195C12.6421 11.9195 11.1982 10.5981 10.9805 9.78494C10.5565 8.85885 10.5336 6.65656 10.7628 6.44198C10.7628 6.44198 10.2127 7.05184 9.83455 8.26028C9.6512 8.85885 9.52515 9.62683 9.52515 10.1463C9.52515 11.0273 9.67412 12.5632 10.6596 13.862C11.0951 14.438 11.7597 15.0817 12.4817 15.5561C13.3526 16.1208 14.235 16.4596 14.2923 16.5048C14.5329 16.6742 16.7905 17.6115 16.9967 17.7132C17.203 17.8148 18.2344 18.2892 18.4636 18.4021C19.2428 18.8087 19.6439 19.0797 19.896 19.7348L17.5468 21.4627C17.5468 21.4627 17.6499 21.6434 17.6499 21.9371C17.6499 21.9371 17.6499 22.0161 17.6499 22.1517C17.3291 22.05 17.0082 21.9597 16.6873 21.9032C15.1518 21.6434 14.2121 21.666 12.9859 21.9597C11.6337 22.2872 10.2127 22.8293 8.87196 24.1394C7.3593 25.6301 7.38222 26.624 7.38222 26.624L8.88341 25.7431C10.144 25.0429 11.8056 24.625 12.9745 24.625C15.7706 24.625 17.2259 25.4269 17.627 25.8673C17.627 27.2565 17.627 28.4875 17.627 28.5439C17.627 29.0748 17.4666 29.1425 17.3405 29.2442C17.2947 29.278 17.2603 29.2893 17.0884 29.391C17.0884 29.391 17.2947 29.47 17.3405 29.5152C17.478 29.6169 22.8067 32.7904 22.8067 32.7904L24.8694 31.2996L25.8893 32.9034L23.0588 36.3706L21.1107 34.62V37.8952L23.3338 39.9168L27.2644 35.0492L30.496 40.1201L33.0973 38.0646V34.8233L31.0117 36.3706L28.9146 33.0728L32.7421 28.3294L34.0141 29.3345ZM20.6982 22.05L21.9129 21.1691C22.2452 21.4401 22.6348 21.6886 23.0244 21.9032C23.0015 21.9258 22.9786 21.9371 22.9786 21.9371C22.9786 21.9371 21.5805 23.1229 20.6982 23.2472V22.05ZM22.8296 29.7411L20.6982 28.4536V25.28C21.592 25.1219 23.7693 24.1055 24.8923 22.9874C24.9038 23.202 24.9038 25.3252 24.9038 26.7595L23.5974 24.7154L21.6035 26.1158V28.6117L22.7036 27.8889L23.5286 29.1877L22.8296 29.7411Z" fill="#231F20"/>
</g>
<defs>
<clipPath id="clip0_1_284">
<rect width="41.2914" height="40.6658" fill="white" transform="translate(3.05176e-05 0.885376)"/>
</clipPath>
</defs>
</svg>
