<svg width="54" height="46" viewBox="0 0 54 46" fill="none" xmlns="http://www.w3.org/2000/svg">
<path d="M23.7035 3.83813C20.7713 3.83813 18.6732 5.97752 18.6817 8.78231V14.3245C18.6817 16.2196 20.2742 18.0979 22.5154 18.0979H31.4637C32.0788 18.0979 32.2473 18.6622 32.2473 18.8728C32.2473 18.9486 32.2389 23.7412 32.2389 23.7412C32.2389 25.0215 31.4974 26.0238 30.1661 26.0238H28.8601V19.3108H25.751V19.3192V26.0322H22.4649C21.9088 26.0153 21.8077 25.4847 21.8077 25.2489C21.8077 25.0804 21.8077 22.9831 21.8077 22.2251C21.8077 21.4249 22.7935 21.1554 23.0378 21.0964C23.0715 21.088 23.0884 21.0712 23.0884 21.0375C23.0884 21.0122 23.0631 20.9954 23.0463 20.9954H18.6901C18.6901 22.5788 18.6901 25.6532 18.6901 25.6616C18.6817 27.3125 20.0382 29.157 22.0267 29.157H25.5487H25.7594C25.7594 29.2581 25.7594 32.4419 25.7594 32.5262C25.751 32.8041 25.7004 33.0484 25.633 33.2674C25.3465 34.0254 24.6387 34.4044 24.3186 34.4718C24.2343 34.4887 24.2343 34.5813 24.3017 34.5982H24.3101H34.7498H34.8425C39.2745 34.5982 41.7517 32.4419 41.7517 28.0705V16.5144C41.7517 12.1009 39.266 10.012 34.8762 10.012C34.8762 10.012 24.4028 10.012 24.3101 10.012C24.2259 10.012 24.2175 10.1468 24.3101 10.1552C24.3944 10.1637 25.751 10.2816 25.751 11.5281V14.9731C24.7736 14.9731 22.6334 14.9731 22.5407 14.9731C22.0099 14.9646 21.8329 14.5856 21.8077 14.2908C21.8077 13.4822 21.8077 9.37191 21.8077 9.31295C21.8414 7.75473 22.6839 6.95457 24.15 6.95457H31.253C31.6659 6.95457 32.0198 7.15671 32.0198 7.65366C32.0198 8.15903 31.489 8.30221 31.3879 8.35275C31.3457 8.37802 31.3373 8.43698 31.3879 8.43698H35.3564V7.13145C35.3227 6.17125 34.6908 3.83813 31.708 3.83813H23.7035ZM28.877 12.9179H35.1542C37.2691 12.9179 38.6341 14.434 38.6341 16.3965V28.559C38.6341 30.5889 37.0416 31.6755 35.0278 31.6755C33.1826 31.6755 29.9723 31.6755 28.8854 31.6755V29.1402H30.5368C33.469 29.1402 35.3986 27.0177 35.3986 24.2297C35.3986 24.2297 35.3986 18.8139 35.3986 18.4854C35.3986 17.2893 34.4212 14.9731 31.5648 14.9731H28.8938L28.877 12.9179Z" fill="#002D62"/>
</svg>
