<svg width="52" height="52" viewBox="0 0 52 52" fill="none" xmlns="http://www.w3.org/2000/svg">
<path d="M27.1078 44.374H37.6348C36.6601 43.7173 35.8085 42.5579 35.4186 41.2343L32.4841 31.1382C32.1661 30.0506 32.6791 28.963 33.5102 28.2242C32.3405 27.8651 31.2939 27.0443 30.9656 25.9259L29.3137 20.2725C31.6531 19.4927 33.1818 18.0973 33.1818 16.4865C33.1818 14.3831 30.5757 12.6594 26.9436 12.1566L25.5687 7.43689H24.0297L22.6548 12.1669C19.0226 12.6594 16.4165 14.3831 16.4165 16.4865C16.4165 18.0973 17.9453 19.4927 20.2949 20.2725L18.643 25.9259C18.3147 27.0546 17.2681 27.8651 16.0985 28.2242C16.9193 28.963 17.4426 30.0506 17.1245 31.1382L14.1798 41.2343C13.7899 42.5579 12.9383 43.7173 11.9738 44.374H22.5009C21.639 43.7173 21.167 42.5579 21.5569 41.2343L21.8134 40.3519H27.8055L28.062 41.2343C28.4416 42.5579 27.9696 43.7173 27.1078 44.374ZM23.8963 33.2005L24.8094 30.0814L25.7124 33.2005H23.8963Z" fill="white"/>
<path d="M35.87 43.6558C35.3672 42.9991 34.9671 42.2399 34.7311 41.4395L31.8069 31.405C31.3452 29.8146 32.1968 28.686 32.3097 28.5013C31.2939 27.9473 30.5449 27.1162 30.2679 26.1209L28.4928 20.0161C31.0066 19.3491 32.7098 18.0153 32.7098 16.4865C32.7098 14.5473 29.9601 12.9262 26.3176 12.5671L25.0351 8.15515H24.5734L23.2909 12.5671C19.6485 12.9262 16.8987 14.5473 16.8987 16.4865C16.8987 18.0256 18.6122 19.3491 21.1157 20.0161L19.3406 26.1209C19.0534 27.1059 18.3146 27.9473 17.2989 28.5013C17.4117 28.686 18.2736 29.8146 17.8016 31.405L14.8774 41.4395C14.6414 42.2399 14.2413 43.0094 13.7385 43.6558H21.0233C20.4385 42.3527 20.7463 41.4088 21.0028 40.5161L21.2593 39.6337H28.3287L28.5852 40.5161C28.8417 41.4088 29.1495 42.3527 28.5647 43.6558H35.87ZM22.9318 33.9188L24.8094 27.5061L26.6768 33.9188H22.9318Z" fill="#003263"/>
<path d="M26.7384 18.0563L25.8047 14.8346L25.9894 15.481C25.6097 15.4605 25.2096 15.4502 24.8094 15.4502V17.5433L30.4218 36.7814L31.7146 41.1933L33.9308 42.5169C33.7769 42.1783 33.6333 41.8294 33.5307 41.4806L30.7399 31.918C30.2987 30.42 30.5449 29.7736 30.863 28.8707C30.0216 28.2243 29.4676 27.3932 29.1906 26.439L27.0667 19.1542" fill="#CD1141"/>
<path d="M25.4661 13.6649L24.8094 11.4076V13.6443C25.0249 13.6443 25.2506 13.6546 25.4661 13.6649Z" fill="#CD1141"/>
<path d="M17.8633 41.3164L19.6588 42.5271C19.5665 41.9218 19.6588 41.1317 19.823 40.5674L20.4181 38.5051L19.1868 36.7814" fill="#CD1141"/>
<path d="M21.4236 35.0575L24.8095 23.4634V17.533L19.1869 36.7813H30.4219L28.1749 35.0575" fill="#CD1141"/>
<path d="M24.8094 23.4634L28.1748 35.0575L30.4218 36.7813L24.8094 17.533" fill="#8F0028"/>
<path d="M33.9309 42.527L31.7044 41.1932L30.4116 36.7813H19.1868L24.8095 17.533V15.4399C25.2096 15.4399 25.6098 15.4501 25.9894 15.4706L25.8047 14.8242C25.7534 14.8242 25.7021 14.8242 25.6508 14.814C25.3738 14.8037 25.0968 14.7935 24.7992 14.7935C24.4606 14.7935 24.122 14.8037 23.7937 14.8242L22.8498 18.046L22.5317 19.1541L20.4078 26.4389C20.1308 27.3828 19.587 28.2242 18.7354 28.8706C19.0535 29.7735 19.2997 30.4199 18.8585 31.9179L16.0575 41.4805C15.9548 41.8396 15.8215 42.1782 15.6573 42.5168H19.6383L17.8427 41.3061L19.1868 36.7813L20.4181 38.505H29.1804L29.7857 40.5673C29.9499 41.1316 30.0422 41.9217 29.9499 42.527" fill="#8F0028"/>
<path d="M24.8094 11.4076L24.1527 13.6649C24.3682 13.6546 24.5837 13.6546 24.8094 13.6546" fill="#8F0028"/>
<path d="M22.8599 18.0563C20.8284 17.8101 19.3817 17.1945 19.3817 16.4865C19.3817 15.6657 21.2798 14.9782 23.8039 14.8346C24.1322 14.8141 24.4605 14.8038 24.8094 14.8038C25.0967 14.8038 25.384 14.8141 25.661 14.8243C25.7123 14.8243 25.7636 14.8243 25.8149 14.8346C28.3287 14.9782 30.2371 15.6657 30.2371 16.4865C30.2371 17.2047 28.7904 17.8101 26.7588 18.0563L27.0769 19.1644C29.6933 18.7746 31.5709 17.728 31.5709 16.4865C31.5709 15.009 28.893 13.7983 25.466 13.6547C25.2506 13.6444 25.0351 13.6444 24.8094 13.6444C24.5837 13.6444 24.3682 13.6547 24.1527 13.6547C20.7258 13.7983 18.0478 15.009 18.0478 16.4865C18.0478 17.728 19.9255 18.7746 22.5419 19.1644" fill="#C4CDD3"/>
<path d="M37.9222 42.7631H37.6144V43.6147H37.3989V42.7631H37.0911V42.5784H37.9222V42.7631ZM39.3278 43.6147H39.1124V42.7938L38.8148 43.6147H38.6096L38.3223 42.7938V43.6147H38.1069V42.5784H38.466L38.702 43.2555H38.7122L38.9585 42.5784H39.3176L39.3278 43.6147Z" fill="#003263"/>
</svg>
