<svg width="37" height="38" viewBox="0 0 37 38" fill="none" xmlns="http://www.w3.org/2000/svg">
<path d="M26.223 10.8696C25.9162 8.22115 24.3415 6.98386 21.5397 7.16792L20.8137 7.21905V16.2073L21.734 16.0335C24.7301 15.4711 26.4888 13.4464 26.223 10.8696ZM13.6251 12.4239C13.6251 12.4239 12.6946 18.1502 8.19531 16.146C5.48553 14.9291 5.20944 10.2151 9.4326 6.07378C15.7009 -0.0308809 31.2233 1.45183 30.5995 11.1661C30.2621 16.6981 26.223 18.9069 20.6705 20.9213V31.1264C20.6705 34.235 17.4699 36.3824 14.8215 35.9222C11.9992 35.4212 11.9174 32.057 15.3021 28.4985V8.10867C12.6946 9.18236 10.9767 12.4852 13.6251 12.4239Z" fill="#CE1141"/>
<path d="M15.5546 36.1685C15.2989 36.1685 15.0535 36.148 14.8081 36.1071C13.7549 35.9231 13.0186 35.33 12.7221 34.4506C12.2006 32.8656 13.1107 30.6364 15.1456 28.4686V8.37538C13.4788 9.16275 12.3028 10.8091 12.4869 11.6885C12.5994 12.1997 13.1618 12.302 13.6322 12.2918H13.8265L13.7958 12.4861C13.7753 12.6088 13.305 15.4003 11.4235 16.4127C10.4929 16.9137 9.38856 16.8831 8.14104 16.3309C7.07758 15.8605 6.37202 14.8788 6.13683 13.57C5.71758 11.2079 6.90375 8.37538 9.32721 6.00305C11.2189 4.16245 14.0207 2.91493 17.2316 2.47523C20.3095 2.05598 23.4794 2.45478 25.9029 3.57959C29.2568 5.12365 30.985 7.83343 30.7702 11.2181C30.4123 17.0876 25.8824 19.2349 20.8412 21.0755V31.1682C20.8412 32.5793 20.2072 33.8984 19.0415 34.8698C18.0496 35.6981 16.7714 36.1685 15.5546 36.1685ZM15.4728 7.89478V28.5913L15.4319 28.6425C13.4686 30.708 12.5483 32.8963 13.0289 34.3483C13.2845 35.1255 13.9185 35.6265 14.8592 35.7901C16.1783 36.0151 17.702 35.5652 18.837 34.604C19.9209 33.6939 20.514 32.4668 20.514 31.1477V20.8301L20.6162 20.7892C26.5982 18.6214 30.126 16.3616 30.443 11.1772C30.6475 7.92546 28.991 5.32817 25.7699 3.84546C20.6878 1.51403 13.2538 2.58771 9.55217 6.20756C7.21052 8.50832 6.0448 11.2283 6.45382 13.4882C6.66856 14.6846 7.31277 15.5844 8.27397 16.0139C9.42946 16.5252 10.4316 16.5661 11.2701 16.1161C12.7425 15.3185 13.305 13.2325 13.4481 12.5985C12.4971 12.5576 12.2517 12.0566 12.1801 11.7498C11.9347 10.5841 13.4583 8.71283 15.2478 7.97659L15.4728 7.89478ZM20.6674 16.4229V7.09719L21.5365 7.03583C24.4406 6.84155 26.0767 8.12997 26.3937 10.8704C26.68 13.5393 24.8598 15.6355 21.7717 16.2082L20.6674 16.4229ZM20.9844 7.39373V16.0343L21.7104 15.9014C24.6247 15.3594 26.3323 13.3961 26.0665 10.9113C25.7699 8.37538 24.2565 7.17899 21.557 7.35283L20.9844 7.39373Z" fill="#CE1141"/>
</svg>
