<svg width="37" height="38" viewBox="0 0 37 38" fill="none" xmlns="http://www.w3.org/2000/svg">
<g clip-path="url(#clip0_1_333)">
<path d="M16.3527 17.1956V20.9071C16.3527 20.9071 21.0755 21.2105 22.5216 20.3306C22.2587 21.1498 22.3396 23.8398 22.5216 24.2848C20.6912 23.3443 16.3527 23.7185 16.3527 23.7185V27.4602H23.3509L24.8375 25.7309V19.3194L23.1082 17.317C22.0868 17.2058 18.4158 17.1956 16.3527 17.1956ZM5.52185 3.90731C6.97811 3.21964 8.52538 1.75327 9.07147 0.762207C10.4671 1.41954 23.3509 1.32853 24.8375 0.762207C25.7375 2.07688 26.6982 2.80501 28.0635 3.24998C27.932 4.51409 27.9725 4.95905 28.3871 5.96023H24.8375L23.3509 4.30172H10.7199L9.06136 5.75797V12.4527L10.7098 14.0505L12.793 14.1416C12.793 11.6538 12.8234 11.1785 10.9929 10.6931C11.5997 9.4694 11.721 9.32782 11.8829 7.81089C13.4504 8.33676 29.631 8.0536 30.3288 7.64908C30.2175 9.23681 31.1075 12.2403 31.7142 13.3629H28.1646C27.9826 12.1291 27.2039 11.1785 25.9701 10.9459H16.3325V14.1416C16.3325 14.1416 23.8262 14.3438 24.8172 14.0101C25.3128 15.2944 27.0825 17.1653 28.3669 17.6811C27.9421 20.2902 28.0129 24.7601 28.3669 27.4703C26.9713 28.158 25.5454 29.5839 24.8172 31.02C23.0576 30.5345 16.3325 30.7773 16.3325 30.7773V32.7695C16.6764 34.1347 17.4146 34.4685 18.7091 34.5797C18.7091 34.5797 17.6775 36.5315 17.627 37.6742H11.5694C11.539 36.5618 10.4873 34.5797 10.4873 34.5797C11.6503 34.5291 12.611 33.8415 12.7829 32.7695V30.7671C12.7829 30.7671 10.6592 30.6862 9.05125 31.0098C8.56583 29.9177 6.79607 27.9659 5.50162 27.4602C5.7949 26.6714 5.66343 21.7768 5.22858 20.7453H9.05125V25.7208L10.5378 27.4501H12.7829V17.1956C12.7829 17.1956 10.821 17.0945 9.05125 17.2361C8.5456 16.245 7.02867 14.6573 5.50162 13.909C5.99716 12.0988 6.03761 5.60628 5.52185 3.90731Z" fill="#FD5A1E"/>
<path d="M20.2461 36.1876H19.8113V37.3607H19.518V36.1876H19.0933V35.9348H20.2461V36.1876ZM22.1979 37.3607H21.9046V36.2281H21.8945L21.4799 37.3607H21.1967L20.8023 36.2281H20.7922V37.3607H20.499V35.9348H21.0046L21.3383 36.8652H21.3484L21.6923 35.9348H22.1979V37.3607Z" fill="#FD5A1E"/>
</g>
<defs>
<clipPath id="clip0_1_333">
<rect width="36.912" height="36.912" fill="white" transform="translate(-0.000610352 0.762207)"/>
</clipPath>
</defs>
</svg>
