<svg width="47" height="42" viewBox="0 0 47 42" fill="none" xmlns="http://www.w3.org/2000/svg">
<path d="M12.6408 25.1377C16.2209 25.3937 16.4238 27.2919 17.7245 29.2968C18.8583 31.0457 20.3977 32.6773 22.5816 32.6773C24.9922 32.6773 25.2786 30.5125 25.2786 29.7127C25.2786 28.4543 24.5626 27.4412 23.4886 26.5454C23.3215 26.4068 23.0231 26.0548 22.8441 25.9162C22.1162 25.383 21.2808 24.8818 20.3977 24.3806C20.159 24.2419 20.0278 24.3166 19.7891 24.1779C16.3164 22.2264 12.5453 20.0082 12.5453 14.0043C12.5453 6.8379 18.5122 3.5 22.6413 3.5C25.6366 3.5 27.8086 5.09963 27.8086 5.09963L31.9019 3.77727V15.9238C29.1929 15.9238 27.5102 13.503 26.9136 12.4899C26.5794 11.9141 25.744 9.15204 23.3931 9.15204C21.8775 9.15204 21.4837 10.5704 21.4837 11.4022C21.4837 12.5646 22.3549 13.631 23.6795 14.4842C24.5029 15.0174 25.5531 15.5932 26.5675 16.1478C27.0448 16.4144 28.2143 16.8729 28.3814 16.9796C30.5772 18.3659 34.1216 20.9254 34.1216 26.5667C34.1216 34.149 28.1069 38.308 22.8322 38.308C20.3619 38.308 17.3307 36.9857 17.3307 36.9857L12.6527 38.4893L12.6408 25.1377Z" fill="#003263"/>
<path d="M26.4363 16.0731C25.7919 15.7212 25.1355 15.3586 24.5388 15.0067L24.7656 16.2544C24.9923 16.3824 25.231 16.5104 25.4577 16.6383L26.4363 16.0731Z" fill="#006A65"/>
<path d="M18.9657 23.7194L19.4073 22.8555C18.6912 22.4396 17.9633 21.9917 17.2711 21.4799L15.4214 21.2133C16.4835 22.2157 17.7246 23.0048 18.9657 23.7194Z" fill="#006A65"/>
<path d="M22.1521 24.2952C22.1163 24.2739 22.0686 24.2526 22.0328 24.2206L21.0542 24.7645C21.5196 25.0417 21.9612 25.3083 22.3788 25.5963L22.1521 24.2952Z" fill="#006A65"/>
<path d="M31.6395 21.2239C32.6181 22.7382 33.0597 24.5405 33.0597 26.5667C33.0597 30.6724 31.2338 33.2211 29.6943 34.6288C27.7969 36.3671 25.2908 37.3695 22.8205 37.3695C20.016 37.3695 17.4622 35.8765 17.4622 35.8765L13.6911 37.1563V26.62C14.9561 26.8119 15.5528 27.6224 16.0779 28.5822C16.2927 28.9661 16.5314 29.35 16.8059 29.7766C18.4766 32.368 20.3621 33.6264 22.5699 33.6264C25.3385 33.6264 26.329 31.5255 26.329 29.7233C26.329 28.4329 25.7323 27.2598 24.527 26.1508L24.3003 27.3452C24.9089 28.049 25.2669 28.8168 25.2669 29.7233C25.2669 30.5231 24.9805 32.6879 22.5699 32.6879C20.3979 32.6879 18.8465 31.0563 17.7128 29.3074C16.412 27.3025 16.2092 25.4043 12.629 25.1483V38.4999L17.3071 36.9963C17.3071 36.9963 20.3382 38.3187 22.8085 38.3187C28.0833 38.3187 34.0979 34.1596 34.0979 26.5773C34.0979 24.2739 33.5012 22.4823 32.6539 21.0746L31.6395 21.2239Z" fill="#006A65"/>
<path d="M28.3695 16.9688C28.3456 16.9582 28.3217 16.9369 28.274 16.9155L27.8563 17.79C28.6559 18.3019 29.5748 18.9097 30.3982 19.7096L31.878 19.9228C30.7443 18.5472 29.4077 17.63 28.3695 16.9688Z" fill="#006A65"/>
<path d="M15.5765 19.9122C14.2399 18.3446 13.5836 16.4143 13.5836 14.0042C13.5836 10.2611 15.5765 7.82963 17.0324 6.58192C18.6793 5.16358 20.6603 4.43841 22.6294 4.43841C25.5412 4.43841 27.6893 6.24066 27.6893 6.24066L30.8398 5.12092V14.7081C28.6917 14.1215 28.4889 12.6605 27.4745 11.1142C26.3527 9.4186 25.4338 8.21355 23.3931 8.21355C21.3644 8.21355 20.4336 9.8665 20.4336 11.4021C20.4336 12.6499 21.1496 13.8443 22.522 14.868L22.7248 13.7483C21.9491 13.0444 21.4837 12.2446 21.4837 11.4021C21.4837 10.5703 21.8656 9.152 23.3931 9.152C25.7441 9.152 26.5675 11.914 26.9136 12.4899C27.2358 13.0338 27.8683 13.9829 28.7991 14.7401L29.5271 14.3241L29.1929 15.0387C29.9328 15.5505 30.8398 15.9238 31.9138 15.9238V3.77723L27.7967 5.11025C27.7967 5.11025 25.6247 3.51062 22.6294 3.51062C18.5122 3.51062 12.5334 6.84852 12.5334 14.0149C12.5334 16.6916 13.2852 18.6112 14.4189 20.0935L15.5765 19.9122Z" fill="#006A65"/>
<path d="M19.9086 19.2724L17.4025 14.3349L22.1522 16.905L22.367 15.7212C20.8037 14.6868 19.6938 13.4284 19.6938 11.4022C19.6938 8.9921 21.3526 7.43512 23.1904 7.43512C27.4985 7.43512 28.0833 12.1167 30.0165 13.5244V6.11276C28.7874 6.49667 27.8327 7.04054 27.6059 7.04054C27.2121 7.04054 25.4578 5.08899 22.6534 5.08899C19.2284 5.08899 14.3594 8.18162 14.3594 13.8337C14.3594 16.4784 15.1829 18.3446 16.412 19.7843L19.9086 19.2724Z" fill="#C4CDD3"/>
<path d="M27.4747 18.5792L27.1525 19.2511L28.7994 19.4963C28.3817 19.1551 27.9402 18.8565 27.4747 18.5792Z" fill="#C4CDD3"/>
<path d="M18.5244 21.6613C18.8943 21.9172 19.2642 22.1625 19.6461 22.3864L19.9206 21.8639L18.5244 21.6613Z" fill="#C4CDD3"/>
<path d="M27.1287 21.9065L27.1406 22.0451L29.5393 26.812L24.8732 24.2313L24.6704 25.3297C26.0785 26.3641 27.0571 27.6225 27.0571 29.5207C27.0571 32.3467 25.2909 34.3623 22.8684 34.3623C17.1043 34.3623 15.9826 29.1155 14.4908 27.8251V36.0792C16.4241 35.5567 16.9611 35.0128 17.355 35.0128C18.0352 35.0128 19.5269 36.6657 22.7729 36.6657C27.4032 36.6657 32.2602 32.6667 32.2602 26.6414C32.2602 24.3699 31.6397 22.6849 30.685 21.3839L27.1287 21.9065Z" fill="#C4CDD3"/>
<path d="M18.1064 15.0493L20.3142 19.4216L20.2903 21.8211L18.1064 26.0761L22.5816 23.5914L24.1569 23.4954L28.823 26.0761L26.8181 22.109L26.663 19.5709L28.823 15.0493L24.7655 17.3528L22.6293 17.4914L18.1064 15.0493Z" fill="#006A65"/>
<path d="M18.1064 15.0493L21.615 18.7178L20.2903 21.8211L18.1064 26.0761L21.8179 22.461L24.1569 23.4954L28.823 26.0761L24.6104 21.6078L26.663 19.5709L28.823 15.0493L24.9803 18.9098L22.6293 17.4914L18.1064 15.0493Z" fill="#C4CDD3"/>
<path d="M28.5844 20.5734C28.5844 23.0902 26.2932 25.1377 23.4768 25.1377C20.6604 25.1377 18.3691 23.1009 18.3691 20.5734C18.3691 18.0567 20.6604 16.0092 23.4768 16.0092C26.2932 16.0092 28.5844 18.0567 28.5844 20.5734Z" fill="#006A65"/>
<path d="M28.3934 20.5735C28.3934 23.0049 26.1857 24.9671 23.4767 24.9671C20.7558 24.9671 18.56 22.9942 18.56 20.5735C18.56 18.142 20.7677 16.1798 23.4767 16.1798C26.1976 16.1798 28.3934 18.142 28.3934 20.5735Z" fill="white"/>
<path d="M20.2664 17.5768C20.3022 17.5661 20.3976 17.2675 20.3976 17.2675C20.3857 17.2569 20.3499 17.2142 20.326 17.1929C20.3022 17.2035 20.2783 17.2249 20.2544 17.2462L20.1948 17.4595L20.1351 17.4168C20.1232 17.4168 20.0874 17.4275 20.0277 17.4381C19.968 17.4915 19.9084 17.5448 19.8487 17.6088C19.9322 17.5874 20.1709 17.5235 20.2067 17.5128C20.2306 17.5555 20.2664 17.5768 20.2664 17.5768Z" fill="#EC174C"/>
<path d="M20.6124 17.7794C20.6482 17.7687 20.7437 17.4595 20.7437 17.4595C20.7318 17.4381 20.6363 17.3848 20.6363 17.3848L20.6005 17.3741L20.5886 17.3955L20.505 17.6727L20.4215 17.6301C20.3976 17.6301 20.0157 17.7367 20.0157 17.7367C20.0157 17.7794 20.1112 17.8327 20.1112 17.8327C20.1231 17.8327 20.4812 17.7367 20.517 17.7261C20.5528 17.7581 20.6124 17.7794 20.6124 17.7794Z" fill="#EC174C"/>
<path d="M20.517 18.0567C20.5408 18.0567 20.8869 17.9394 20.9108 17.9287C20.9466 17.95 21.0062 17.982 21.0062 17.982C21.042 17.9714 21.1017 17.6514 21.1017 17.6514C21.0898 17.6301 20.9824 17.5874 20.9824 17.5874L20.9585 17.5768V17.6088L20.9108 17.886L20.8153 17.8434C20.7914 17.8434 20.4095 17.9714 20.4095 17.9714C20.4095 18.0034 20.517 18.0567 20.517 18.0567Z" fill="#EC174C"/>
<path d="M20.8751 18.1954C20.8989 18.2274 20.9825 18.2594 20.9825 18.2594C20.9944 18.2594 21.3405 18.1314 21.3643 18.1208C21.4001 18.1421 21.4718 18.1634 21.4718 18.1634C21.5076 18.1528 21.5314 17.8328 21.5314 17.8328C21.5195 17.8115 21.4001 17.7688 21.4001 17.7688L21.3643 17.7582V17.7902L21.3405 18.0674L21.245 18.0354C21.2211 18.0354 20.8512 18.1741 20.8512 18.1741C20.8631 18.1741 20.8631 18.1847 20.8751 18.1954Z" fill="#EC174C"/>
<path d="M21.3404 18.366C21.3404 18.3767 21.3523 18.3767 21.3523 18.3873C21.3881 18.4193 21.4836 18.4406 21.4836 18.4406C21.4955 18.4406 21.8177 18.2807 21.8297 18.27C21.8774 18.2913 21.949 18.302 21.949 18.302C21.9848 18.2807 21.9371 17.9714 21.9371 17.9714C21.9252 17.9501 21.7939 17.9288 21.7939 17.9288L21.7581 17.9181V17.9501L21.7939 18.2274L21.6865 18.1954C21.6745 18.1954 21.3404 18.366 21.3404 18.366Z" fill="#EC174C"/>
<path d="M25.016 18.3446C25.016 18.3233 25.0279 18.302 25.0279 18.2913C25.0757 18.2913 25.1473 18.27 25.1473 18.27C25.1473 18.27 25.1473 18.2593 25.1353 18.2487C25.1115 18.2167 25.0279 18.1527 24.9683 18.0994C24.9921 18.1847 25.0041 18.27 25.016 18.3446Z" fill="#EC174C"/>
<path d="M25.41 18.1421C25.398 18.1634 25.3503 18.4193 25.3503 18.4193C25.3861 18.4407 25.5054 18.398 25.5054 18.398C25.5174 18.3873 25.5651 18.1634 25.5651 18.1207C25.6009 18.1101 25.6606 18.0887 25.6606 18.0887C25.6606 18.0887 25.6606 18.0781 25.6486 18.0674H25.6367C25.5651 18.0034 25.3145 17.8541 25.3145 17.8541C25.2906 17.8541 25.1832 17.8968 25.1832 17.8968L25.1355 17.9074L25.4816 18.1101" fill="#EC174C"/>
<path d="M25.8036 17.9927C25.7917 18.014 25.8036 18.2699 25.8036 18.2699C25.8394 18.2913 25.9468 18.238 25.9468 18.238C25.9588 18.2166 25.9468 18.014 25.9468 17.9714C25.9826 17.9607 26.0423 17.9394 26.0423 17.9394C26.0423 17.9394 26.0423 17.9287 26.0304 17.918H26.0184C25.9468 17.854 25.6843 17.7261 25.6843 17.7261C25.6604 17.7261 25.553 17.7687 25.553 17.7687L25.5172 17.7901L25.8752 17.9714" fill="#EC174C"/>
<path d="M26.1736 17.8328C26.1617 17.8541 26.1975 18.1101 26.1975 18.1101C26.2333 18.1314 26.3407 18.0674 26.3407 18.0674C26.3526 18.0461 26.3288 17.8435 26.3168 17.8008C26.3526 17.7902 26.4004 17.7582 26.4004 17.7582C26.4004 17.7475 26.4004 17.7475 26.3884 17.7368C26.3168 17.6835 26.0423 17.5555 26.0423 17.5555C26.0185 17.5555 25.923 17.6089 25.923 17.6089L25.8872 17.6302L26.2452 17.7902" fill="#EC174C"/>
<path d="M26.5316 17.6301C26.5197 17.6514 26.6271 17.8967 26.6271 17.8967C26.6629 17.9074 26.7464 17.8434 26.7464 17.8434C26.7464 17.822 26.6748 17.6301 26.6509 17.5874C26.6867 17.5661 26.7225 17.5341 26.7225 17.5341C26.7106 17.5021 26.3407 17.3741 26.3407 17.3741C26.3168 17.3741 26.2452 17.4381 26.2452 17.4381L26.2213 17.4595L26.5913 17.5874L26.5316 17.6301Z" fill="#EC174C"/>
<path d="M26.9254 17.6728C26.9612 17.6835 27.0448 17.6195 27.0448 17.6195C27.0448 17.6088 27.0328 17.5768 27.0209 17.5342C26.9732 17.4809 26.9135 17.4382 26.8538 17.3849L26.83 17.4062C26.83 17.4275 26.9254 17.6728 26.9254 17.6728Z" fill="#EC174C"/>
<path d="M26.5197 17.2356L26.7823 17.3209C26.7226 17.2676 26.6629 17.2249 26.5913 17.1823C26.5674 17.1929 26.5436 17.2142 26.5436 17.2142" fill="#EC174C"/>
<path d="M26.7226 23.5808C26.6868 23.5914 26.5913 23.89 26.5913 23.89C26.5913 23.9007 26.6271 23.922 26.639 23.9434C26.6748 23.922 26.6987 23.89 26.7345 23.8687L26.7822 23.6981L26.8419 23.7407C26.8419 23.7407 26.8658 23.7407 26.9016 23.7301C26.9613 23.6768 27.0209 23.6234 27.0925 23.5594C26.9851 23.5808 26.8061 23.6341 26.7703 23.6448C26.7584 23.6021 26.7226 23.5808 26.7226 23.5808Z" fill="#EC174C"/>
<path d="M26.8775 23.3248C26.8536 23.3248 26.5195 23.4208 26.4718 23.4315C26.436 23.4101 26.3882 23.3782 26.3882 23.3782C26.3524 23.3888 26.257 23.6981 26.257 23.6981C26.2689 23.7194 26.3644 23.7727 26.3644 23.7727L26.3882 23.7834L26.4837 23.4848L26.5672 23.5275C26.5792 23.5275 26.973 23.4208 26.973 23.4208C26.973 23.3782 26.8775 23.3248 26.8775 23.3248Z" fill="#EC174C"/>
<path d="M26.472 23.1116C26.4481 23.1116 26.0901 23.2289 26.0781 23.2395C26.0423 23.2182 25.9827 23.1969 25.9827 23.1969C25.9469 23.2076 25.8872 23.5168 25.8872 23.5168C25.8991 23.5381 26.0065 23.5808 26.0065 23.5808L26.0423 23.5915L26.102 23.2822L26.1975 23.3249C26.2214 23.3249 26.6032 23.1969 26.6032 23.1969C26.5794 23.1542 26.472 23.1116 26.472 23.1116Z" fill="#EC174C"/>
<path d="M26.1138 22.9623C26.0899 22.9303 26.0064 22.8983 26.0064 22.8983C25.9825 22.8983 25.6365 23.0263 25.6245 23.037C25.5887 23.0156 25.5171 22.9943 25.5171 22.9943C25.4813 23.005 25.4575 23.3249 25.4575 23.3249C25.4694 23.3462 25.5887 23.3889 25.5887 23.3889L25.6245 23.3995L25.6484 23.0903L25.7439 23.1223C25.7677 23.1223 26.1377 22.9836 26.1377 22.9836C26.1257 22.9836 26.1257 22.973 26.1138 22.9623Z" fill="#EC174C"/>
<path d="M25.6606 22.8023C25.6606 22.7916 25.6606 22.7916 25.6486 22.781C25.6128 22.749 25.5174 22.7277 25.5174 22.7277C25.5054 22.7277 25.1832 22.8983 25.1713 22.8983C25.1355 22.8876 25.0519 22.8663 25.0519 22.8663C25.0161 22.8876 25.0639 23.1969 25.0639 23.1969C25.0758 23.2182 25.2071 23.2395 25.2071 23.2395L25.2429 23.2502L25.2071 22.9409L25.3145 22.9729C25.3264 22.9729 25.6606 22.8023 25.6606 22.8023Z" fill="#EC174C"/>
<path d="M25.0757 22.6316C25.0757 22.6316 25.0637 22.621 25.0518 22.621C25.0518 22.6423 25.0399 22.653 25.0399 22.6743C25.0637 22.6636 25.0757 22.6423 25.0757 22.6423C25.0876 22.6423 25.0757 22.6423 25.0757 22.6316Z" fill="#EC174C"/>
<path d="M21.5791 23.0156C21.591 23.0049 21.6388 22.7277 21.6388 22.7277C21.603 22.7063 21.4836 22.749 21.4836 22.749C21.4717 22.7596 21.424 22.9836 21.424 23.0262C21.3762 23.0369 21.3285 23.0582 21.3285 23.0582C21.3285 23.0689 21.3404 23.0796 21.3404 23.0796C21.412 23.1436 21.6626 23.2929 21.6626 23.2929C21.6865 23.2929 21.7939 23.2502 21.7939 23.2502L21.8416 23.2395L21.4956 23.0369" fill="#EC174C"/>
<path d="M21.1853 23.1649C21.1972 23.1435 21.1853 22.8876 21.1853 22.8876C21.1495 22.8663 21.0421 22.9196 21.0421 22.9196C21.0301 22.9303 21.0301 23.1435 21.0421 23.1862C21.0063 23.1969 20.9466 23.2182 20.9466 23.2182L20.9705 23.2395C21.0421 23.3035 21.3046 23.4421 21.3046 23.4421C21.3285 23.4421 21.4359 23.3995 21.4359 23.3995L21.4717 23.3782L21.1137 23.1969" fill="#EC174C"/>
<path d="M20.8152 23.3248C20.8272 23.3035 20.7914 23.0476 20.7914 23.0476C20.7556 23.0369 20.6482 23.0902 20.6482 23.0902C20.6362 23.1009 20.6601 23.3142 20.672 23.3568C20.6362 23.3781 20.5885 23.3995 20.5885 23.3995L20.6004 23.4101C20.672 23.4635 20.9465 23.5914 20.9465 23.5914C20.9704 23.5914 21.0659 23.5381 21.0659 23.5381L21.1017 23.5168L20.7436 23.3568" fill="#EC174C"/>
<path d="M20.4694 23.5274C20.4694 23.5061 20.3739 23.2608 20.3739 23.2608C20.3381 23.2502 20.2546 23.3142 20.2546 23.3142C20.2426 23.3355 20.3262 23.5274 20.35 23.5701C20.3142 23.5914 20.2784 23.6234 20.2784 23.6234C20.2904 23.6554 20.6603 23.7834 20.6603 23.7834C20.6842 23.7834 20.7558 23.7194 20.7558 23.7194L20.7797 23.6981L20.4097 23.5701" fill="#EC174C"/>
<path d="M20.0637 23.4848C20.0279 23.4742 19.9443 23.5382 19.9443 23.5382C19.9443 23.5488 19.9563 23.6022 19.9801 23.6555C20.0279 23.6981 20.0756 23.7408 20.1233 23.7834L20.1591 23.7515C20.1591 23.7301 20.0637 23.4848 20.0637 23.4848Z" fill="#EC174C"/>
<path d="M20.4692 23.9221L20.1709 23.8154C20.2425 23.8688 20.3141 23.9221 20.3857 23.9754C20.4096 23.9541 20.4334 23.9327 20.4334 23.9327" fill="#EC174C"/>
<path d="M21.949 22.8663C21.9013 22.877 21.8297 22.8877 21.8297 22.8877C21.8297 22.8877 21.8296 22.8983 21.8416 22.909C21.8655 22.941 21.9251 22.9836 21.9848 23.037C21.9729 22.9836 21.9609 22.9197 21.949 22.8663Z" fill="#EC174C"/>
<path d="M23.5006 11.1036L22.0566 19.2404L13.0585 20.5735L22.0566 21.8958L23.4767 30.0113L24.9804 21.9385L34.1575 20.5521L24.9804 19.2084L23.5006 11.1036Z" fill="#006A65"/>
<path d="M23.5006 11.1036L23.4767 20.5735L22.0566 19.2404L13.0585 20.5735H23.4767L22.0566 21.8958L23.4767 30.0113V20.5735L24.9804 21.9385L34.1575 20.5521L23.4767 20.5735L24.9804 19.2084L23.5006 11.1036Z" fill="#C4CDD3"/>
</svg>
