<svg width="44" height="44" viewBox="0 0 44 44" fill="none" xmlns="http://www.w3.org/2000/svg">
<path d="M16.7951 8.98663C16.7951 8.66602 16.7951 8.41175 16.7951 8.31226C16.784 8.31226 16.7287 8.31226 16.7287 8.31226C11.8866 8.31226 9.90768 9.99265 9.89662 14.1605L9.88557 15.1112H5.83936L8.02829 17.1564H11.8423V16.3936C11.8534 12.1263 12.2735 9.42883 16.7951 8.98663Z" fill="#CE1141"/>
<path d="M27.6735 19.0137L26.6011 19.3122C26.579 19.3232 24.2464 19.9976 24.2464 21.5785V30.9091C24.2464 31.5392 24.5117 31.9593 25.772 31.9593H26.4353C26.4353 31.9041 26.4353 31.8377 26.4353 31.7714C26.4353 31.7714 26.4353 24.3533 26.4353 22.4518C26.4353 20.5503 29.0775 19.8096 29.0775 19.8096C29.0775 19.8096 28.37 19.5333 27.6735 19.0137Z" fill="#CE1141"/>
<path d="M24.2574 8.33435C24.2574 9.07505 24.2574 16.1615 24.2574 16.1615C24.2574 17.6318 26.6232 18.5715 26.6453 18.5825L27.6181 18.9584C27.0101 18.483 26.4463 17.8418 26.4463 17.0348C26.4463 15.277 26.4463 9.10822 26.4463 9.10822L26.8222 9.13033C28.2815 9.25193 29.3206 9.63887 30.0724 10.2027C28.8563 8.99767 26.9106 8.34541 24.2574 8.33435Z" fill="#CE1141"/>
<path d="M35.5005 3.65796V15.1112H32.2503L34.5498 17.289H37.59V5.60368L35.5005 3.65796Z" fill="#CE1141"/>
<path d="M28.1708 37.6749H13.6553L16.0543 39.9412H30.017V34.4578L28.1708 32.7443V37.6749Z" fill="#CE1141"/>
<path d="M9.13404 14.1164C9.13404 9.56162 11.4777 7.53852 16.729 7.53852H17.5692V16.1616C17.5692 17.643 16.4968 18.4832 15.723 18.9254C16.4968 19.3234 17.5692 20.1083 17.5692 21.5787V30.8208C17.5692 32.0258 16.74 32.7334 15.3581 32.7334C15.3581 32.7334 14.1752 32.7334 13.6556 32.7334C13.6556 33.3414 13.6556 36.2932 13.6556 36.8901C14.3742 36.8901 26.6787 36.8901 27.3973 36.8901C27.3973 36.2932 27.3973 33.3414 27.3973 32.7334C26.8998 32.7334 25.7832 32.7334 25.7832 32.7334C24.2576 32.7334 23.4837 32.1143 23.4837 30.8982V21.5787C23.4837 20.1194 24.733 19.3123 25.5953 18.9033C24.744 18.4279 23.4837 17.5214 23.4837 16.1616V7.51641L23.8928 7.53852C23.8928 7.53852 24.2576 7.56063 24.2465 7.56063C29.343 7.56063 32.2616 9.86011 32.2616 13.8842C32.2616 13.8842 32.2616 14.1164 32.2616 14.3375C32.7812 14.3375 34.2183 14.3375 34.7379 14.3375C34.7379 13.641 34.7379 4.36567 34.7379 3.66919C33.9862 3.66919 6.60239 3.66919 5.86169 3.66919C5.86169 4.36567 5.86169 13.641 5.86169 14.3375C6.43657 14.3375 8.64761 14.3375 9.17826 14.3375" fill="#004685"/>
</svg>
