<svg width="56" height="56" viewBox="0 0 56 56" fill="none" xmlns="http://www.w3.org/2000/svg">
<path d="M51.8436 24.8307L50.2561 24.3062L50.5254 21.1453L47.6622 21.6698L47.0527 20.0397L46.1881 20.8193C45.6494 21.4005 45.3801 21.6414 44.799 22.1517C44.8982 20.7626 45.0825 19.1184 45.0825 19.1042L45.1959 17.7151C45.1959 17.7151 44.7565 17.8994 43.8918 18.2396C44.5438 14.8094 45.9754 12.6124 45.9754 12.6124C45.9754 12.6124 44.8982 12.5415 44.1611 12.7258C44.6856 11.5493 46.1739 9.55072 46.1739 9.55072C46.1739 9.55072 44.9691 9.53655 44.3454 9.63577C43.7076 9.74916 43.4382 9.80586 42.9421 10.0043C42.9421 10.0043 43.0555 9.32393 43.0697 8.91288C43.1264 7.70806 42.9563 6.8009 42.9563 6.8009L41.1137 8.78531C40.9152 9.09715 40.3341 9.5082 40.0506 9.76334C39.7387 10.0468 39.3702 10.3161 38.8741 10.5996C38.3922 10.8831 37.8536 11.1524 37.2015 11.4501C36.4503 11.7903 35.7699 12.0596 35.1179 12.2864C34.5935 12.4706 34.0407 12.6124 33.5446 12.7541C33.0768 12.8817 32.5807 13.0234 32.0988 13.1368C31.6168 13.2644 31.1207 13.3778 30.5963 13.5054L30.4971 13.5337H30.4829C29.4482 13.718 28.3993 13.8881 27.3645 14.0156C26.8259 14.0865 26.2873 14.1432 25.7487 14.1999C25.3376 14.2424 24.9266 14.2991 24.5297 14.3416C23.5233 14.4692 22.5169 14.611 21.5247 14.7669C20.6743 14.8944 19.838 15.1212 19.0442 15.4614C18.3638 15.7449 17.7827 16.0709 17.2866 16.4536C16.9181 16.7371 16.5921 17.0489 16.2802 17.3608L16.1385 17.4884C15.9684 17.6443 15.7841 17.8285 15.614 18.0412C15.4865 18.1971 15.3731 18.3672 15.2738 18.5514L15.0187 18.6932C14.8344 18.764 14.4659 18.92 14.2391 19.0759C13.984 19.246 13.7288 19.4586 13.5021 19.6854C13.3036 19.898 13.1619 20.1248 13.0626 20.2807L13.0343 20.3232C13.0201 20.3516 12.9918 20.3941 12.9634 20.4366C12.7933 20.465 12.5524 20.5075 12.3681 20.5358C12.198 20.5642 12.0137 20.5925 11.8578 20.6209C11.2625 20.7201 10.5113 20.8618 9.97264 20.9752C9.43402 21.0886 8.96627 21.1879 8.47016 21.3296C8.32842 21.3721 8.18668 21.4005 8.04493 21.443C7.71892 21.528 7.36457 21.6131 7.03856 21.7123C6.61333 21.8399 6.14557 21.9816 5.72034 22.1375C5.32346 22.2793 5.06832 22.3785 4.81319 22.4919C4.55805 22.6053 4.38796 22.7187 4.26039 22.8037L4.21786 22.8321C4.01942 22.9596 3.83516 23.1014 3.67924 23.2857C3.56584 23.4132 3.49497 23.555 3.45245 23.6258V23.64C3.3674 23.8101 3.21149 24.1219 3.21149 24.5472C3.21149 24.9299 3.4808 25.1992 3.4808 25.1992C3.52332 25.2701 3.66506 25.4402 3.73594 25.511C3.76429 25.5394 3.79263 25.5677 3.82098 25.5961L5.35181 26.4749C5.76287 26.645 6.14557 26.8151 6.52828 26.9426C7.09525 27.1552 7.57718 27.3112 8.21503 27.5096C8.88122 27.708 9.90177 27.9915 10.7239 28.2041C11.4468 28.3884 11.8295 28.4876 12.2972 28.5727C12.85 28.6861 13.2894 28.7853 13.4595 28.8136L13.5729 28.842C13.8139 28.8987 13.984 28.927 14.1966 28.9979C14.2675 29.0263 14.3525 29.0404 14.4234 29.0688C14.6502 29.1397 14.877 29.1964 15.1179 29.3097C15.4723 29.4515 15.8833 29.6783 16.266 29.9051C16.6062 30.1177 16.9889 30.387 17.4567 30.7555C17.8819 31.0957 18.3071 31.4642 18.6615 31.8044C19.0159 32.1588 19.2568 32.4139 19.6679 32.8958C20.2065 33.5337 20.6884 34.129 21.0853 34.6676C21.6381 35.4189 22.3185 36.482 22.5736 36.9072C22.9847 37.5592 23.2115 37.9703 23.5517 38.5656C23.8493 39.09 24.1895 39.7279 24.5864 40.4933C24.6573 40.635 24.7281 40.7626 24.799 40.9043C25.0683 41.4146 25.3518 41.9532 25.5644 42.4635C25.7487 42.8746 25.8904 43.2998 26.0463 43.7392C26.1314 43.9802 26.2164 44.2353 26.3156 44.4763C26.5708 45.1566 27.0669 46.4607 27.0669 46.4607L27.7473 48.601L28.9095 46.5741C28.9237 46.5599 29.9443 44.6747 30.412 43.8668C30.9223 42.988 31.3617 42.3076 31.7444 41.7123C32.1838 41.0177 32.6232 40.3657 33.091 39.7279C33.5729 39.0333 33.9981 38.4522 34.4801 37.8427C35.0612 37.0915 35.7841 36.241 36.0818 35.915C36.2802 35.6882 36.4361 35.5181 36.592 35.3622C36.7905 35.1496 36.9889 34.937 37.2441 34.6251C37.5134 34.2991 37.9811 33.8739 38.378 33.5053C38.5056 33.392 38.6331 33.2644 38.7465 33.1652C39.2285 32.7116 40.0931 31.9745 40.0931 31.9603L40.6034 31.5068L41.1703 32.5273L42.0208 31.1099L47.4779 31.5493L46.018 29.8342L51.8436 24.8307Z" fill="white"/>
<path d="M30.8373 14.4976C31.3476 14.3842 31.8578 14.2566 32.3539 14.1291C32.85 14.0015 33.332 13.8739 33.8139 13.7322C34.3525 13.5763 34.9053 13.4203 35.4439 13.2502C36.1952 12.9951 36.9181 12.7116 37.6268 12.3856C38.2363 12.1163 38.8316 11.8186 39.3986 11.4785C39.8805 11.195 40.3341 10.8831 40.7451 10.5146C41.0853 10.2028 41.383 9.84841 41.6381 9.4657C41.6806 9.73501 41.6806 10.0043 41.6665 10.2736C41.6523 10.4862 41.6098 10.6989 41.5672 10.9115C41.5247 11.1383 41.468 11.3792 41.3972 11.606L42.7012 11.039C43.2682 10.7839 43.8635 10.5855 44.473 10.5571L44.2037 10.7981C44.0052 11.0249 43.821 11.2375 43.6509 11.4785C43.4666 11.7194 43.2965 11.9604 43.1264 12.2155C42.8713 12.6124 42.6161 13.0235 42.4035 13.4487L41.9216 14.5259L42.2618 14.2708C42.4602 14.1574 42.6445 14.044 42.8429 13.9306C43.0414 13.8172 43.2398 13.718 43.4524 13.6471C43.6225 13.5904 43.8068 13.5479 43.9911 13.5337C44.147 13.5196 44.3171 13.5196 44.473 13.5337C44.3738 13.6188 44.2887 13.7038 44.2178 13.7889C44.0619 13.9731 43.9344 14.1999 43.8493 14.4267C43.7076 14.7244 43.5942 15.0362 43.4949 15.348C43.3532 15.7874 43.254 16.2269 43.1406 16.6663C43.0414 17.0915 42.928 17.5167 42.8004 17.9419L41.0711 15.0929L39.0159 18.4239L37.0598 17.6443L37.4992 22.0809L35.3022 19.983L34.636 21.5847L31.872 21.1453V21.6698C31.4609 21.6273 31.0499 21.5848 30.6388 21.5281C30.1002 21.4572 29.5474 21.3863 29.023 21.2729C28.5694 21.1737 28.1158 21.0461 27.6622 20.9186C27.1803 20.7768 26.7125 20.6351 26.2448 20.4792C25.777 20.3232 25.3093 20.1531 24.8415 19.9972C24.5155 19.8838 24.1895 19.7846 23.8635 19.6996C24.232 19.6429 24.5864 19.6003 24.9549 19.572C25.2668 19.5436 25.5786 19.5295 25.9046 19.5436C26.2873 19.5436 26.67 19.572 27.0386 19.6287C26.5425 19.4444 26.0322 19.3027 25.5077 19.1751C24.9975 19.0617 24.473 18.9625 23.9486 18.8916C23.5092 18.8349 23.0697 18.7924 22.6303 18.7782C22.2335 18.7641 21.8508 18.7641 21.4539 18.7924C21.0712 18.8066 20.7026 18.8491 20.3341 18.92C19.9939 18.9908 19.6679 19.0901 19.3561 19.2318C19.1718 19.3169 18.9875 19.4019 18.8174 19.5011C18.3497 19.7137 17.9812 20.1531 17.8536 20.6492C17.7544 21.0178 17.7969 21.4147 17.9528 21.7548C17.6126 21.769 17.2866 21.6698 17.0031 21.4855C16.7905 21.3438 16.6204 21.1595 16.4787 20.9611C16.3511 20.7768 16.2235 20.5784 16.1527 20.3658C16.0251 20.0256 15.9968 19.6429 16.096 19.3027C16.1669 19.0901 16.2944 18.8916 16.4362 18.7074C16.5779 18.5231 16.748 18.3672 16.9181 18.2113C17.2441 17.8852 17.5843 17.5592 17.9528 17.2758C18.4206 16.9214 18.9308 16.6379 19.4836 16.4111C20.2065 16.1135 20.9578 15.9008 21.7232 15.7874C22.7154 15.6315 23.7076 15.4898 24.6998 15.3622C25.6495 15.2488 26.5992 15.1496 27.5488 15.022C28.6686 14.8803 29.7884 14.7102 30.894 14.4976" fill="#003DA5"/>
<path d="M15.4439 19.6287C15.4439 19.6287 14.9903 19.8129 14.7777 19.9405C14.5792 20.0681 14.395 20.2382 14.2391 20.3941C14.0831 20.55 13.9839 20.7484 13.8989 20.876C13.8138 21.0036 13.7004 21.2445 13.5445 21.3296C13.3886 21.4288 12.609 21.5138 12.042 21.6131C11.4751 21.7123 10.7522 21.8399 10.1994 21.9674C9.64658 22.0808 9.20717 22.18 8.73942 22.3076C8.27167 22.4352 7.77557 22.5486 7.33616 22.6761C6.89676 22.8037 6.429 22.9596 6.07465 23.073C5.72029 23.2006 5.47932 23.2856 5.25253 23.399C5.02574 23.5124 4.884 23.5975 4.75643 23.6825C4.62886 23.7676 4.52964 23.8526 4.43042 23.9518C4.3312 24.0511 4.27451 24.207 4.27451 24.207L16.1242 24.2495C16.1242 24.2495 16.2376 24.0936 16.3085 24.0227C16.3794 23.9518 16.4361 23.8951 16.592 23.8101C16.7479 23.725 16.9322 23.6542 17.1306 23.6116C17.3291 23.5691 17.5275 23.555 17.7118 23.555C17.9102 23.555 18.1087 23.5408 18.3354 23.5975C18.5622 23.6542 18.8032 23.7534 19.0016 23.8526C19.1859 23.9518 19.356 24.0794 19.4836 24.1786C19.6111 24.2778 19.7245 24.4196 19.8521 24.533C19.9797 24.6464 20.1072 24.7456 20.249 24.8448C20.4049 24.9582 20.5892 25.0858 20.7734 25.1708C20.9577 25.2559 21.1278 25.2984 21.3121 25.3409C21.4963 25.3693 21.6948 25.3834 21.9074 25.3834C22.12 25.3834 22.4035 25.3409 22.6161 25.2842C22.8429 25.2133 23.0413 25.1 23.2256 25.0007C23.4099 24.9015 23.5658 24.7739 23.7075 24.6605C23.8493 24.5472 23.9485 24.4338 24.0902 24.3204C24.2178 24.207 24.3454 24.0652 24.5013 23.966C24.6572 23.8668 24.8415 23.7817 25.0116 23.725C25.1816 23.6683 25.3376 23.6258 25.5077 23.5975C25.6919 23.5833 32.0137 23.5833 32.0137 23.5833L31.9853 22.6194C31.9853 22.6194 26.4715 22.6336 25.536 22.6194C25.3517 22.6053 25.21 22.5627 25.0824 22.5344C24.9549 22.4919 24.9123 22.4635 24.7564 22.3785C24.6005 22.2934 24.4446 22.1942 24.2745 22.0666C24.1044 21.9391 23.9201 21.7548 23.75 21.6131C23.5799 21.4713 23.4524 21.3296 23.2823 21.2162C23.1264 21.1028 22.9704 21.0036 22.7862 20.9327C22.6161 20.8618 22.4177 20.8051 22.2334 20.7768C22.0349 20.7484 21.8507 20.7626 21.6522 20.7768C21.4538 20.791 21.2837 20.8193 21.0711 20.8902C20.9293 20.9327 20.7309 21.0319 20.6175 21.1028C20.4049 21.2304 20.249 21.3863 20.0505 21.528C19.8663 21.6698 19.6962 21.8115 19.5261 21.9533C19.3276 22.095 19.1717 22.2367 18.9449 22.3643C18.7748 22.4635 18.5339 22.5911 18.3496 22.6194C18.1087 22.6478 17.9953 22.6478 17.811 22.6336C17.6267 22.6194 17.4992 22.5911 17.3149 22.5344C17.1306 22.4777 16.9464 22.3927 16.7621 22.2793C16.5778 22.1659 16.3936 22.0099 16.2235 21.8257C16.0534 21.6414 15.8691 21.443 15.7415 21.202C15.614 20.9752 15.4864 20.6776 15.4155 20.4224C15.3447 20.1673 15.4439 19.6287 15.4439 19.6287ZM21.1703 21.5422V22.7754H20.5183C20.5183 22.7754 20.5466 22.4352 20.5892 22.2793C20.6175 22.1659 20.6742 22.0383 20.7451 21.9391C20.8018 21.8399 20.8868 21.7548 20.9719 21.6698C21.0286 21.6272 21.1703 21.5422 21.1703 21.5422Z" fill="#041E42"/>
<path d="M15.4439 19.6287V19.6145C15.4439 19.6145 14.9903 19.7988 14.7777 19.9264C14.5792 20.0539 14.395 20.224 14.2391 20.3799C14.0831 20.55 13.9697 20.7343 13.8989 20.8619C13.8138 20.9894 13.7004 21.2304 13.5587 21.3155C13.4878 21.358 13.2469 21.4147 12.9634 21.4572C12.6799 21.4997 12.3397 21.5564 12.0562 21.5989C11.4892 21.6982 10.7663 21.8257 10.2135 21.9533C9.66075 22.0667 9.22134 22.1659 8.75359 22.2935C8.28584 22.421 7.78974 22.5344 7.35033 22.662C6.91093 22.7896 6.44318 22.9455 6.08882 23.0589C5.73446 23.1865 5.4935 23.2715 5.26671 23.3849C5.03992 23.4983 4.89818 23.5833 4.77061 23.6684C4.64304 23.7534 4.52964 23.8385 4.4446 23.9377C4.34538 24.0511 4.28868 24.1928 4.28868 24.1928L4.27451 24.207L16.1668 24.2495C16.1668 24.2495 16.1951 24.207 16.2376 24.1645C16.2802 24.122 16.3227 24.0653 16.351 24.0227C16.4219 23.9519 16.4786 23.8952 16.6345 23.8101C16.7904 23.7251 16.9747 23.6542 17.1731 23.6117C17.3716 23.5692 17.5558 23.555 17.7543 23.555V23.5408V23.555C17.811 23.555 17.8677 23.555 17.9244 23.555C18.0661 23.555 18.222 23.555 18.378 23.5975C18.6047 23.6542 18.8457 23.7534 19.03 23.8527C19.2142 23.9519 19.3843 24.0794 19.5119 24.1787L19.5261 24.1645L19.5119 24.1787C19.6395 24.2779 19.7529 24.4196 19.8804 24.533C20.008 24.6464 20.1356 24.7456 20.2915 24.8449C20.4474 24.9583 20.6317 25.0858 20.8159 25.1709C21.0002 25.2559 21.1703 25.2984 21.3546 25.341C21.5388 25.3693 21.7089 25.3835 21.9074 25.3835C21.9215 25.3835 21.9357 25.3835 21.9499 25.3835C22.1625 25.3835 22.446 25.341 22.6728 25.2701C22.8996 25.1992 23.098 25.0858 23.2823 24.9866C23.4665 24.8732 23.6225 24.7598 23.7642 24.6464C23.9059 24.533 24.0193 24.4196 24.1469 24.3062C24.2745 24.1928 24.402 24.0511 24.558 23.9519C24.7139 23.8527 24.8981 23.7676 25.0682 23.7109C25.2383 23.6542 25.3801 23.6117 25.5643 23.5833C25.6636 23.5692 27.6054 23.5692 29.3489 23.5692C30.0718 23.5692 30.7521 23.5692 31.2482 23.5692C31.7443 23.5692 32.0704 23.5692 32.0704 23.5692H32.0845L32.0562 22.577H32.042C32.042 22.577 31.8861 22.577 31.631 22.577C30.8514 22.577 29.1079 22.577 27.6763 22.577C26.7266 22.577 25.9045 22.577 25.5927 22.577V22.5911V22.577C25.4084 22.5628 25.2667 22.5203 25.1391 22.4919C25.0115 22.4494 24.969 22.421 24.8273 22.336C24.6855 22.251 24.5154 22.1517 24.3595 22.0242C24.1894 21.8966 24.0052 21.7123 23.8492 21.5706C23.6792 21.4288 23.5516 21.2871 23.3815 21.1737C23.2256 21.0603 23.0697 20.9611 22.8854 20.8902C22.7011 20.8194 22.5169 20.7627 22.3184 20.7343C22.2334 20.7201 22.1483 20.7201 22.0491 20.7201C21.9357 20.7201 21.8365 20.7201 21.7231 20.7343C21.5247 20.7485 21.3546 20.7768 21.142 20.8477C21.0002 20.9044 20.8018 20.9894 20.6884 21.0603C20.4758 21.1879 20.3198 21.3438 20.1214 21.4855C19.9371 21.6273 19.767 21.769 19.597 21.9108C19.3985 22.0525 19.2426 22.1943 19.0158 22.3218C18.8599 22.421 18.6047 22.5486 18.4347 22.5628C18.2929 22.577 18.1795 22.5911 18.0803 22.5911C18.0236 22.5911 17.9669 22.5911 17.896 22.577C17.7259 22.5628 17.5842 22.5344 17.3999 22.4777C17.2157 22.421 17.0314 22.336 16.8471 22.2226C16.6629 22.1092 16.4786 21.9533 16.3085 21.769C16.1384 21.5848 15.9683 21.3863 15.8266 21.1595C15.699 20.9327 15.5714 20.6351 15.5147 20.3799C15.4722 20.1957 15.458 19.898 15.458 19.7279C15.458 19.6571 15.458 19.6004 15.458 19.6004L15.4439 19.6287H15.4297H15.4439V19.6145V19.6287H15.458H15.4297C15.4297 19.6287 15.4297 19.6712 15.4297 19.7563C15.4297 19.9264 15.4297 20.224 15.4864 20.4083C15.5573 20.6776 15.6707 20.9753 15.8124 21.2021C15.94 21.4288 16.1242 21.6415 16.2943 21.8257C16.4644 22.01 16.6487 22.1659 16.833 22.2793C17.0172 22.3927 17.2015 22.4777 17.3858 22.5344C17.57 22.5911 17.7118 22.6195 17.8819 22.6337C17.9527 22.6337 18.0094 22.6478 18.0661 22.6478C18.1653 22.6478 18.2646 22.6337 18.4205 22.6195C18.6047 22.5911 18.8599 22.4636 19.0158 22.3644C19.2426 22.2368 19.4127 22.095 19.597 21.9533C19.767 21.8257 19.9371 21.6698 20.1214 21.5281C20.3198 21.3863 20.4758 21.2304 20.6884 21.1028C20.8018 21.032 21.0002 20.9327 21.142 20.8902C21.3546 20.8194 21.5247 20.8052 21.7231 20.7768C21.8223 20.7627 21.9357 20.7627 22.0349 20.7627C22.12 20.7627 22.205 20.7627 22.2901 20.7768C22.4743 20.8052 22.6728 20.8619 22.8429 20.9327C23.013 21.0036 23.1689 21.1028 23.339 21.2162C23.4949 21.3296 23.6366 21.4714 23.8067 21.6131C23.9626 21.7549 24.1611 21.9391 24.3312 22.0667C24.5013 22.1943 24.6572 22.2935 24.8131 22.3785C24.9548 22.4636 24.9974 22.4919 25.1391 22.5344C25.2667 22.577 25.4084 22.6053 25.5927 22.6195C25.9045 22.6195 26.7266 22.6195 27.6763 22.6195C29.5898 22.6195 32.042 22.6195 32.042 22.6195V22.6053H32.0278L32.0562 23.5692H32.0704V23.555C32.0704 23.555 30.7805 23.555 29.3489 23.555C27.6054 23.555 25.6636 23.555 25.5643 23.5692C25.3801 23.5833 25.2242 23.6259 25.0541 23.6967C24.884 23.7534 24.6997 23.8385 24.5438 23.9377C24.3879 24.0369 24.2603 24.1787 24.1327 24.2921C24.0052 24.4055 23.8918 24.5188 23.75 24.6322C23.6083 24.7456 23.4524 24.8732 23.2823 24.9724C23.098 25.0858 22.8996 25.185 22.687 25.2559C22.4602 25.3268 22.1909 25.3551 21.9782 25.3551C21.9641 25.3551 21.9499 25.3551 21.9357 25.3551C21.7373 25.3551 21.5672 25.341 21.3829 25.3126C21.1987 25.2701 21.0286 25.2276 20.8443 25.1425C20.66 25.0575 20.4758 24.9299 20.3198 24.8165C20.1639 24.7031 20.0505 24.6039 19.923 24.5047C19.7954 24.4055 19.682 24.2637 19.5544 24.1503C19.4269 24.0511 19.2568 23.9235 19.0725 23.8101C18.8882 23.7109 18.6473 23.6117 18.4063 23.555V23.5692V23.555C18.2362 23.5125 18.0803 23.5125 17.9386 23.5125C17.8819 23.5125 17.8252 23.5125 17.7685 23.5125C17.57 23.5125 17.3858 23.5266 17.1873 23.5692C16.9889 23.6117 16.7904 23.6826 16.6345 23.7676C16.4786 23.8527 16.4219 23.9094 16.351 23.9802C16.2802 24.0511 16.1668 24.207 16.1668 24.207L16.1809 24.2212V24.207L4.3312 24.1645V24.1787H4.34538C4.34538 24.1787 4.35955 24.1361 4.3879 24.0936C4.41625 24.0369 4.4446 23.9802 4.50129 23.9235L4.48712 23.9094L4.50129 23.9235C4.60051 23.8243 4.69973 23.7393 4.8273 23.6542C4.95487 23.5692 5.09662 23.4841 5.3234 23.3707C5.55019 23.2715 5.79116 23.1723 6.14552 23.0447C6.49987 22.9172 6.96763 22.7754 7.40703 22.6478C7.84644 22.5203 8.34254 22.4069 8.81029 22.2793C9.27804 22.1517 9.71745 22.0525 10.2702 21.9391C10.823 21.8257 11.5459 21.684 12.1129 21.5848C12.3964 21.5422 12.7366 21.4855 13.0201 21.443C13.3036 21.4005 13.5445 21.3438 13.6296 21.3013C13.7997 21.2021 13.8989 20.9611 13.9839 20.8335C14.069 20.706 14.1682 20.5217 14.3241 20.3516C14.48 20.1957 14.6643 20.0256 14.8627 19.898C14.9619 19.8271 15.132 19.7563 15.2596 19.6996C15.4014 19.6429 15.5147 19.6004 15.5147 19.6004H15.5289V19.5862L15.4439 19.6287ZM21.1703 21.5422H21.1561V22.7612H20.5183V22.7754H20.5325C20.5325 22.7754 20.5466 22.6904 20.5466 22.5911C20.5608 22.4919 20.575 22.3644 20.6033 22.2793C20.6317 22.1659 20.6884 22.0383 20.7592 21.9391C20.8159 21.8399 20.901 21.7549 20.986 21.6698C21.0144 21.6415 21.0711 21.6131 21.1136 21.5848C21.142 21.5706 21.1845 21.5564 21.1703 21.5422H21.1561H21.1703H21.1845V21.5139L21.1561 21.5281C21.1561 21.5281 21.0144 21.6131 20.9577 21.6698C20.8726 21.7549 20.7876 21.8399 20.7309 21.9391C20.66 22.0383 20.6175 22.1659 20.575 22.2793C20.5325 22.4494 20.4899 22.7754 20.4899 22.7754V22.7896H21.1845V21.5422H21.1703Z" fill="black"/>
<path d="M35.5999 21.2162L37.5418 23.0447C37.6977 23.1722 37.9387 23.2856 38.0946 23.2147C38.208 23.1439 38.293 23.0021 38.2647 22.8179C38.1513 21.5705 37.8678 18.679 37.8678 18.679L39.3277 19.2885L41.2413 16.3544L43.0556 19.3026L44.5014 18.7215C44.5014 18.7215 44.2746 21.4997 44.1754 22.8037C44.1895 22.9596 44.2179 23.0588 44.3596 23.1439C44.5722 23.2289 44.6431 23.1439 44.8699 23.0163C45.6495 22.3785 46.1739 21.8115 46.8401 21.1028L47.3221 22.421L49.8593 22.0241L49.6892 24.8023L50.5538 25.1708L45.1676 29.8342L46.018 30.9398L41.6665 30.5854L41.1988 31.3225L40.7735 30.6279L36.2944 30.9114L37.2016 29.8909L31.7445 25.1141L32.6942 24.8448L32.5241 21.9958L35.0896 22.4068L35.5999 21.2162Z" fill="#DA291C"/>
<path d="M4.2887 24.533L7.91732 24.6605L10.8798 24.8731L13.502 25.1708L15.3022 25.4401C15.3022 25.4401 15.288 25.6953 15.3305 25.8653C15.373 26.0354 15.4439 26.2906 15.5431 26.4748C15.6423 26.6591 15.7983 26.8434 15.94 26.9993C16.0959 27.1552 16.2235 27.2544 16.4361 27.4245C16.6629 27.5804 16.9747 27.7789 17.2724 27.949C17.57 28.1049 17.8961 28.2325 18.2362 28.3884C18.5764 28.5443 18.9733 28.7144 19.2851 28.8561C19.597 28.9979 19.7671 29.0404 20.1356 29.2247C20.5183 29.4089 21.1278 29.7349 21.5389 29.9759C21.9499 30.2169 22.2759 30.4295 22.6161 30.6704C22.9563 30.9114 23.2256 31.1098 23.5941 31.4217C23.9627 31.7193 24.3879 32.1162 24.799 32.4989C25.2242 32.8958 25.6778 33.2927 26.103 33.7604C26.5424 34.2424 26.996 34.8235 27.3787 35.3621C27.7614 35.9008 28.1441 36.5103 28.4276 36.9922C28.7111 37.4741 28.9237 37.9277 29.0796 38.2537C29.2355 38.5797 29.3773 38.9766 29.3773 38.9766C29.3773 38.9766 29.7174 38.4805 29.9301 38.1403C30.1427 37.8001 30.4687 37.3891 30.6955 36.978C30.9364 36.567 31.2908 36.0992 31.6026 35.7023C31.9145 35.3054 32.2972 34.8519 32.5807 34.4975C32.8641 34.1432 33.0909 33.8738 33.3319 33.5904C33.587 33.3069 33.9839 32.8958 33.9839 32.8958L31.8436 32.8816C31.8436 32.8816 32.1696 32.1871 32.368 31.7619C32.5665 31.3366 32.8216 30.798 33.0484 30.387C33.2752 29.9759 33.4736 29.6641 33.7146 29.2955C33.9414 28.927 34.4375 28.1332 34.4375 28.1332L36.3652 29.8625L34.9903 31.5492C34.9903 31.5492 35.6848 31.5067 36.2376 31.4926C36.7904 31.4642 37.5558 31.4075 38.0803 31.3792C38.4347 31.3508 39.3985 31.2374 39.3985 31.2374C39.3985 31.2374 38.5197 32.0028 38.0236 32.4706C37.5275 32.9383 36.8188 33.5478 36.4219 34.0298C35.9967 34.54 35.7415 34.7526 35.2738 35.2913C34.806 35.8299 34.154 36.6095 33.6437 37.2615C33.1335 37.9135 32.6941 38.523 32.2263 39.1892C31.7585 39.8412 31.3191 40.5074 30.8656 41.2161C30.412 41.9249 29.9868 42.591 29.5048 43.4132C29.0229 44.2353 27.9882 46.1488 27.9882 46.1488C27.9882 46.1488 27.4921 44.8448 27.2369 44.1644C26.9818 43.484 26.755 42.7895 26.4573 42.1091C26.1597 41.4287 25.7912 40.7342 25.4368 40.068C25.0966 39.4018 24.7281 38.7073 24.3879 38.0978C24.0477 37.4883 23.8068 37.0631 23.3815 36.3969C22.9563 35.7307 22.3468 34.781 21.8507 34.1006C21.3546 33.4203 20.816 32.7682 20.3907 32.2721C19.9655 31.776 19.7104 31.4926 19.3135 31.1098C18.9166 30.7271 18.463 30.3303 18.0378 29.9901C17.6126 29.6499 17.1732 29.3381 16.7479 29.0687C16.3227 28.7994 15.8691 28.5726 15.4722 28.4025C15.0754 28.2325 14.7494 28.1616 14.4517 28.0624C14.154 27.9631 13.9272 27.9206 13.6296 27.8639C13.3319 27.7931 12.9067 27.708 12.4531 27.623C11.9995 27.5237 11.631 27.4387 10.9365 27.2686C10.2419 27.0843 9.15049 26.8009 8.47012 26.5882C7.78976 26.3756 7.322 26.2197 6.84008 26.0354C6.35815 25.8653 5.93292 25.6811 5.60691 25.5393C5.29507 25.3976 4.92654 25.2133 4.92654 25.2133C4.92654 25.2133 4.51549 24.9582 4.41627 24.8448C4.34539 24.6889 4.2887 24.533 4.2887 24.533Z" fill="#041E42"/>
<path d="M42.6448 33.0801V32.1871H42.3046V32.0028H43.2118V32.1871H42.8716V33.0801H42.6448Z" fill="white"/>
<path d="M43.3674 33.0801V32.0028H43.7076L43.9202 32.7257L44.1186 32.0028H44.473V33.0801H44.2604V32.2296L44.0336 33.0801H43.8068L43.58 32.2296V33.0801H43.3674Z" fill="white"/>
</svg>
